<svg width="300" height="100" viewBox="0 0 26 26" fill="none" xmlns="http://www.w3.org/2000/svg">
<path opacity="0.2" d="M13 26C20.1797 26 26 20.1797 26 13C26 5.8203 20.1797 0 13 0C5.8203 0 0 5.8203 0 13C0 20.1797 5.8203 26 13 26Z" fill="#56F4F1"/>
<path fill-rule="evenodd" clip-rule="evenodd" d="M5 8.01333C5 8.02167 6.17311 10.08 7.60683 12.5892C9.45584 15.8242 10.2178 17.15 10.2269 17.1483C10.2385 17.1458 15.4488 8.025 15.4488 8.0075C15.4488 8.00333 14.3559 8 12.9917 8C10.8854 8 10.5346 8.00167 10.5346 8.01167C10.5346 8.01833 11.041 8.90083 11.6589 9.9725C12.2778 11.045 12.7849 11.9267 12.7866 11.9317C12.7882 11.9367 12.6939 12.1075 12.5781 12.3108L12.3671 12.6817L12.3448 12.6433C12.3324 12.6217 11.7251 11.5692 10.9955 10.3042L9.66763 8.00417L7.33382 8.00167C5.16794 8 5 8.00083 5 8.01333Z" fill="#56F4F1"/>
<path fill-rule="evenodd" clip-rule="evenodd" d="M16.3067 8.00583C16.2207 8.15167 10.6637 17.9008 10.6604 17.91C10.6554 17.93 12.9826 22.0017 12.9975 21.9983C13.0074 21.9958 15.3479 17.9117 15.3553 17.8825C15.3578 17.8742 14.9044 17.0808 14.2914 16.0175C13.704 15 13.2225 14.1642 13.2217 14.16C13.2184 14.15 13.6378 13.4167 13.6445 13.4208C13.6478 13.4225 14.1284 14.2533 14.7133 15.2667C15.534 16.6892 15.7789 17.1083 15.7897 17.1067C15.7996 17.105 16.6699 15.59 18.3957 12.5708C19.8203 10.0775 20.9876 8.02917 20.9901 8.01833L20.9934 8H18.6521C17.364 8 16.3084 8.0025 16.3067 8.00583Z" fill="#0ED8D2"/>
</svg>
