<svg width="300" height="100" viewBox="0 0 300 100" fill="none" xmlns="http://www.w3.org/2000/svg">
<path d="M53.5342 73.959C53.411 73.9898 53.2879 73.9898 53.1647 73.9898H51.9021C46.3281 73.9898 41.1852 72.0805 37.1202 68.8777C35.0569 66.9992 33.6711 64.5047 32.9012 62.811C32.2545 61.3944 31.731 59.9162 31.3922 58.3764C31.0535 56.8675 30.8687 55.3277 30.8379 53.7571V52.9564C30.8533 52.7255 30.8687 52.5022 30.8841 52.2789C30.8995 52.0557 30.9149 51.8324 30.9303 51.6014C31.0535 50.154 31.3614 48.7066 31.7618 47.3208C32.1929 45.9042 32.7472 44.5184 33.4555 43.225C34.1638 41.87 35.0261 40.6074 36.0115 39.4372C37.0586 38.1745 38.2596 37.0351 39.553 36.0497C40.8157 35.095 42.1707 34.2635 43.618 33.586C45.0346 32.9393 46.5128 32.4158 48.0526 32.077C49.5616 31.7383 51.1014 31.5535 52.6719 31.5227H53.4726V35.6185H52.7643C47.6523 35.7417 42.6634 37.9282 39.1527 42.0856C36.3503 45.4115 34.9645 49.4765 34.9337 53.5415C34.8721 58.9923 37.2126 64.474 41.7703 68.2926C44.5111 70.5715 47.7447 71.8957 51.1322 72.6348C52.6411 72.9735 55.0432 73.3739 57.9996 73.2815C57.8764 73.3123 57.7609 73.3431 57.6454 73.3739C57.5299 73.4047 57.4145 73.4355 57.2913 73.4663H57.2605C57.2143 73.4817 57.1604 73.4894 57.1065 73.4971C57.0526 73.5048 56.9987 73.5125 56.9525 73.5278H56.8909C56.6754 73.5894 56.429 73.651 56.1826 73.6818C56.121 73.6972 56.0672 73.7049 56.0133 73.7126C55.9594 73.7203 55.9055 73.728 55.8439 73.7434H55.7823C55.7361 73.7434 55.6899 73.7511 55.6437 73.7588C55.5975 73.7665 55.5513 73.7742 55.5051 73.7742H55.4435L55.4123 73.7822L55.3826 73.7899C55.2878 73.8147 55.2069 73.8358 55.1048 73.8358C55.0432 73.8358 54.9816 73.8435 54.92 73.8512C54.8584 73.8589 54.7968 73.8666 54.7352 73.8666H54.6737C54.6076 73.8666 54.5505 73.8754 54.4974 73.8837C54.4515 73.8908 54.4086 73.8974 54.3657 73.8974H54.2733C54.1809 73.9282 54.0885 73.9282 53.9962 73.9282H53.9038C53.7806 73.959 53.6882 73.959 53.565 73.959H53.5342Z" fill="#000008"/>
<path d="M59.1708 70.0171C57.7542 69.9863 55.9988 69.7707 54.6438 69.5244C48.2999 68.3849 42.8491 64.5047 40.8474 58.6535C38.4146 51.5398 42.1408 43.8409 49.2238 41.5004C50.6096 41.0385 51.9954 40.8229 53.412 40.8229C55.2289 40.8229 57.0459 41.1925 58.7088 41.87L60.4334 38.2053C59.9099 37.9897 59.3863 37.8049 58.8628 37.6202C57.1075 37.0659 55.2597 36.7887 53.412 36.7887C51.5643 36.7887 49.7165 37.0967 47.9612 37.6818C45.7131 38.4209 43.6498 39.6219 41.8945 41.1925C41.063 41.9316 40.2623 42.7938 39.5848 43.6869C38.9073 44.58 38.3222 45.5346 37.8295 46.5509C37.3367 47.5671 36.9364 48.6142 36.6592 49.692C36.3821 50.7699 36.1665 51.9093 36.1049 53.0488C35.9509 55.3892 36.2589 57.7297 37.0288 59.947C37.7987 62.195 39.0305 64.2583 40.7242 66.0753C42.2332 67.7074 43.9886 68.9393 46.1135 70.0787C48.3307 71.2489 51.0715 71.8648 53.9355 72.2652C55.7833 72.5115 58.2469 72.5731 59.6943 72.5731C60.926 72.1225 61.4544 71.9063 62.1085 71.6387L62.1579 71.6185C62.7431 71.3413 63.3282 71.0642 63.9133 70.7254C64.4861 70.3938 64.5867 70.3278 65.5153 69.7184L65.5162 69.7178L65.5762 69.6784C65.6686 69.6168 65.761 69.5552 65.8226 69.4936C62.4763 70.102 61.5942 70.0793 59.2577 70.0193L59.1708 70.0171Z" fill="#000008"/>
<path d="M66.6165 65.4678L66.7468 65.4593C67.7696 65.3826 69.1534 65.2422 70.1224 65.1439C70.3202 65.1238 70.5012 65.1054 70.6578 65.0898C69.58 66.4448 68.3173 67.6766 66.9623 68.7545C65.5457 69.0624 64.7143 69.1856 63.6056 69.2472C59.6022 69.5243 55.4756 69.1856 52.6732 68.2617C49.7476 67.2763 47.0068 65.5517 45.0051 63.396C43.8657 62.1642 42.9726 60.84 42.3259 59.4234C41.6176 57.822 41.248 56.1283 41.248 54.4345C41.248 52.7408 41.5868 51.1086 42.2335 49.5688C42.8494 48.0906 43.7733 46.7356 44.9127 45.5962C46.0522 44.4568 47.4072 43.5329 48.8853 42.917C50.4251 42.2703 52.0573 41.9315 53.751 41.9315C55.4448 41.9315 57.077 42.2703 58.6167 42.917C60.0949 43.5329 61.4499 44.4568 62.5894 45.5962C63.4824 46.4585 64.1907 47.4439 64.7759 48.5218L61.1112 50.3387C59.6638 47.7827 56.923 46.0273 53.751 46.0273C49.1009 46.0273 45.3131 49.7844 45.3131 54.4653C45.3131 59.1462 49.5013 62.9341 53.9358 64.4123C56.7998 65.3669 60.1565 65.6133 62.8973 65.6133C64.3683 65.6133 65.6708 65.529 66.6165 65.4678Z" fill="#000008"/>
<path fill-rule="evenodd" clip-rule="evenodd" d="M81.3734 43.9641C80.973 42.024 80.3879 40.1455 79.618 38.3285C78.879 36.5424 77.9243 34.8486 76.8464 33.2165C75.7686 31.6151 74.5368 30.1369 73.1818 28.7819C71.8268 27.4269 70.3486 26.1951 68.7472 25.1172C67.1458 24.0394 65.4213 23.1155 63.6351 22.3456C61.8182 21.5757 59.9397 20.9906 57.9996 20.5903C56.0286 20.1899 53.9961 19.9744 51.9636 19.9744C49.9311 19.9744 47.9294 20.2207 45.9585 20.6211C44.0184 21.0214 42.1398 21.6065 40.3229 22.3764C38.5368 23.1155 36.843 24.0702 35.2108 25.148C33.6095 26.2259 32.1313 27.4577 30.7763 28.8127C29.4213 30.1677 28.1895 31.6459 27.1116 33.2473C26.0338 34.8486 25.1099 36.5732 24.34 38.3593C23.5701 40.1763 22.985 42.0548 22.5847 43.9949C22.1843 45.9658 21.9688 47.9983 21.9688 50.0308C21.9688 52.0633 22.1843 54.0958 22.5847 56.0668C22.985 58.0069 23.5701 59.8854 24.34 61.7024C25.0791 63.4885 26.0338 65.1823 27.1116 66.8144C28.1895 68.4158 29.4213 69.894 30.7763 71.249C32.1313 72.604 33.6095 73.8358 35.2108 74.9137C36.8122 75.9915 38.5368 76.9154 40.3229 77.6853C42.1398 78.4551 44.0184 79.0403 45.9585 79.4406C47.9294 79.8409 49.9619 80.0565 51.9944 80.0565C54.0269 80.0565 56.0594 79.8409 58.0304 79.4406C59.9705 79.0403 61.849 78.4551 63.6659 77.6853C65.4521 76.9462 67.1458 75.9915 68.778 74.9137C70.3794 73.8358 71.8576 72.604 73.2126 71.249C74.5676 69.894 75.7994 68.4158 76.8772 66.8144C77.9551 65.213 78.8789 63.4885 79.6488 61.7024C80.4187 59.8854 81.0038 58.0069 81.4042 56.0668C81.8045 54.0958 82.0201 52.0633 82.0201 50.0308C81.9893 47.9675 81.7737 45.935 81.3734 43.9641ZM51.9944 76.2379C37.4897 76.2379 25.7566 64.474 25.7566 50C25.7566 35.5261 37.5205 23.7622 51.9944 23.7622C66.4683 23.7622 78.2322 35.5261 78.2322 50C78.2322 64.5047 66.4991 76.2379 51.9944 76.2379Z" fill="#000008"/>
<path fill-rule="evenodd" clip-rule="evenodd" d="M115.896 56.0975C115.896 59.2079 114.757 61.4867 112.755 62.9957C110.938 64.4123 108.444 65.213 105.21 65.1822H90.0586V34.3558H104.902C108.105 34.3558 110.445 35.1565 112.077 36.4807C113.833 37.9589 114.726 39.9298 114.726 42.3935C114.726 45.4422 113.124 47.3824 110.384 48.4294V48.5834C113.74 49.5996 115.896 52.4636 115.896 56.0975ZM103.824 40.4226H97.5727V46.5817H103.763C105.98 46.5817 107.458 45.473 107.458 43.4713C107.458 41.562 106.041 40.4226 103.824 40.4226ZM97.5727 51.7245V59.0539H104.409C106.904 59.0539 108.444 57.6373 108.444 55.42C108.444 52.9564 106.627 51.7245 104.317 51.7245H97.5727Z" fill="#000008"/>
<path d="M148.539 65.1514H156.177V40.8229H164.184V34.3558H140.686V40.8229H148.539V65.1514Z" fill="#000008"/>
<path d="M273.107 65.3978C268.981 65.3978 266.086 64.0736 266.086 59.3618V47.5055H263.13V43.1326H266.055V36.142H272.892V43.1326H276.864V47.5055H272.892V57.8528C272.892 59.5774 273.816 60.0085 275.355 60.0085C275.733 60.0085 276.538 59.9854 277.162 59.9675C277.556 59.9562 277.878 59.9469 277.973 59.9469V65.059C277.388 65.2438 274.986 65.3978 273.107 65.3978Z" fill="#000008"/>
<path d="M247.455 52.9564C247.455 50.2155 249.025 48.2754 251.335 48.2754C253.583 48.2754 254.784 49.9076 254.784 52.2173V65.213H261.775V50.8623C261.775 45.935 258.911 42.5167 254.107 42.5167C251.058 42.5167 248.933 43.8101 247.332 46.1505H247.178V43.1634H240.433V65.1822H247.455V52.9564Z" fill="#000008"/>
<path d="M192.515 55.3276C192.515 50.5543 195.379 48.5526 199.044 49.0453H199.229V42.9786C198.921 42.8246 198.49 42.7322 197.843 42.7938C195.841 42.8862 193.901 43.9641 192.331 46.5817H192.177V43.1326H185.432V65.213H192.454V55.3276H192.515Z" fill="#000008"/>
<path d="M208.344 55.3276V65.213H201.261V43.1326H208.006V46.5817H208.16C209.73 43.9641 211.67 42.8862 213.672 42.7938C214.319 42.7322 214.75 42.8246 215.058 42.9786V49.0453H214.873C211.208 48.5526 208.344 50.5543 208.344 55.3276Z" fill="#000008"/>
<path fill-rule="evenodd" clip-rule="evenodd" d="M227.037 65.7981C229.84 65.7981 232.057 65.059 233.935 63.7964C235.845 62.4722 237.138 60.5629 237.631 58.5919H230.794C230.209 59.9777 229.039 60.8092 227.16 60.8092C224.266 60.8092 222.633 58.9307 222.202 56.0051H238.031C238.093 51.5398 236.738 47.6903 234.151 45.2883C232.273 43.5637 229.778 42.5475 226.637 42.5475C219.954 42.5475 215.335 47.5671 215.335 54.1574C215.273 60.7784 219.77 65.7981 227.037 65.7981ZM226.699 47.4439C228.947 47.4439 230.64 49.1685 230.887 51.7861H222.172C222.664 49.1069 224.05 47.4439 226.699 47.4439Z" fill="#000008"/>
<path fill-rule="evenodd" clip-rule="evenodd" d="M159.471 54.1882C159.471 60.84 164.182 65.8289 171.265 65.8289C178.348 65.8289 183.029 60.8093 183.029 54.1882C183.029 47.5672 178.348 42.5475 171.265 42.5475C164.182 42.5475 159.471 47.5364 159.471 54.1882ZM171.235 47.444C174.283 47.444 175.916 50.1848 175.916 54.1882C175.916 58.1916 174.283 60.84 171.235 60.8708C168.124 60.8708 166.554 58.2224 166.554 54.1882C166.554 50.154 168.186 47.444 171.235 47.444Z" fill="#000008"/>
<path d="M118.852 43.1326H125.873V65.1514H118.852V43.1326Z" fill="#000008"/>
<path d="M138.068 65.3978C134.003 65.3978 131.047 64.0736 131.047 59.3618H131.016V47.5055H128.059V43.1326H131.016V36.142H137.852V43.1326H141.825V47.5055H137.852V57.8528C137.852 59.5774 138.776 60.0085 140.316 60.0085C140.693 60.0085 141.498 59.9854 142.122 59.9675L142.124 59.9674C142.518 59.9562 142.838 59.9469 142.934 59.9469V65.059C142.349 65.2438 139.947 65.3978 138.068 65.3978Z" fill="#000008"/>
<path d="M118.852 34.3558H125.873V40.053H118.852V34.3558Z" fill="#000008"/>
</svg>
