<svg width="300" height="100" viewBox="0 0 300 100" fill="none" xmlns="http://www.w3.org/2000/svg">
<path d="M117.334 68.8681V31.214H133.417C136.04 31.214 138.203 31.6675 139.907 32.5746C141.611 33.4693 142.88 34.6767 143.713 36.1966C144.547 37.7042 144.963 39.3773 144.963 41.2159C144.963 42.8338 144.675 44.1699 144.099 45.224C143.535 46.2781 142.788 47.1116 141.856 47.7245C140.937 48.3373 139.938 48.7908 138.859 49.085V49.4527C140.011 49.5263 141.17 49.9308 142.334 50.6662C143.499 51.4016 144.473 52.4557 145.257 53.8286C146.042 55.2014 146.434 56.8806 146.434 58.8663C146.434 60.7539 146.005 62.4515 145.147 63.9591C144.289 65.4668 142.935 66.6618 141.084 67.5444C139.233 68.4269 136.824 68.8681 133.858 68.8681H117.334ZM121.894 64.8233H133.858C136.837 64.8233 138.951 64.2472 140.201 63.095C141.464 61.9306 142.095 60.521 142.095 58.8663C142.095 57.5915 141.77 56.4148 141.121 55.3362C140.471 54.2453 139.546 53.375 138.344 52.7254C137.143 52.0635 135.721 51.7326 134.079 51.7326H121.894V64.8233ZM121.894 47.7612H133.27C134.643 47.7612 135.881 47.4916 136.984 46.9523C138.099 46.413 138.982 45.653 139.631 44.6724C140.293 43.6919 140.624 42.5397 140.624 41.2159C140.624 39.5612 140.048 38.1577 138.896 37.0056C137.744 35.8411 135.917 35.2589 133.417 35.2589H121.894V47.7612Z" fill="#000008"/>
<path d="M176.852 31.214H184.813V55.6671C184.813 58.4128 184.157 60.8152 182.846 62.8744C181.546 64.9336 179.726 66.5393 177.385 67.6915C175.044 68.8314 172.317 69.4013 169.203 69.4013C166.078 69.4013 163.344 68.8314 161.003 67.6915C158.662 66.5393 156.842 64.9336 155.543 62.8744C154.243 60.8152 153.594 58.4128 153.594 55.6671V31.214H161.555V54.9869C161.555 56.421 161.867 57.6957 162.492 58.8111C163.13 59.9265 164.025 60.8029 165.177 61.4403C166.329 62.0777 167.671 62.3963 169.203 62.3963C170.748 62.3963 172.09 62.0777 173.23 61.4403C174.382 60.8029 175.271 59.9265 175.896 58.8111C176.533 57.6957 176.852 56.421 176.852 54.9869V31.214Z" fill="#000008"/>
<path d="M211.845 42.0433C211.697 40.5601 211.066 39.408 209.951 38.5867C208.835 37.7655 207.322 37.3549 205.41 37.3549C204.11 37.3549 203.013 37.5387 202.118 37.9065C201.224 38.2619 200.537 38.7583 200.059 39.3957C199.593 40.0331 199.361 40.7563 199.361 41.5652C199.336 42.2394 199.477 42.8277 199.783 43.3303C200.102 43.8328 200.537 44.2679 201.089 44.6357C201.64 44.9911 202.278 45.3037 203.001 45.5733C203.724 45.8307 204.496 46.0514 205.318 46.2352L208.701 47.0442C210.343 47.4119 211.851 47.9022 213.223 48.5151C214.596 49.1279 215.785 49.8817 216.79 50.7765C217.795 51.6713 218.574 52.7254 219.125 53.9389C219.689 55.1523 219.977 56.5435 219.989 58.1124C219.977 60.4168 219.389 62.4147 218.224 64.1062C217.072 65.7855 215.405 67.0908 213.223 68.0224C211.054 68.9417 208.437 69.4013 205.373 69.4013C202.333 69.4013 199.685 68.9356 197.43 68.004C195.187 67.0725 193.434 65.6935 192.172 63.8672C190.922 62.0286 190.266 59.7549 190.204 57.0461H197.908C197.994 58.3086 198.356 59.3627 198.993 60.2084C199.643 61.0419 200.507 61.6732 201.585 62.1022C202.676 62.5189 203.908 62.7273 205.281 62.7273C206.629 62.7273 207.8 62.5312 208.793 62.1389C209.798 61.7467 210.576 61.2013 211.128 60.5026C211.679 59.8039 211.955 59.0011 211.955 58.0941C211.955 57.2483 211.704 56.5374 211.201 55.9613C210.711 55.3852 209.988 54.8949 209.032 54.4904C208.088 54.086 206.929 53.7182 205.557 53.3873L201.457 52.3577C198.282 51.5855 195.775 50.3782 193.937 48.7357C192.098 47.0932 191.185 44.8808 191.197 42.0984C191.185 39.8186 191.792 37.8268 193.018 36.123C194.255 34.4193 195.953 33.0894 198.11 32.1333C200.268 31.1772 202.719 30.6992 205.465 30.6992C208.259 30.6992 210.699 31.1772 212.782 32.1333C214.878 33.0894 216.508 34.4193 217.673 36.123C218.837 37.8268 219.438 39.8002 219.475 42.0433H211.845Z" fill="#000008"/>
<path d="M239.235 68.8681H225.887V31.214H239.346C243.133 31.214 247.43 31.9678 250.164 33.4755C252.897 34.9709 254.999 37.122 256.47 39.9289C257.953 42.7358 258.695 46.0943 258.695 50.0043C258.695 53.9266 257.953 57.2973 256.47 60.1165C254.999 62.9357 252.885 65.0991 250.127 66.6067C247.381 68.1143 243.06 68.8681 239.235 68.8681ZM233.848 62.047H238.904C241.258 62.047 244.274 61.6303 245.88 60.7968C247.498 59.951 248.711 58.6456 249.52 56.8806C250.341 55.1033 250.752 52.8112 250.752 50.0043C250.752 47.2219 250.341 44.9482 249.52 43.1832C248.711 41.4181 247.504 40.1189 245.898 39.2854C244.292 38.4519 241.276 38.0352 238.923 38.0352H233.848V62.047Z" fill="#000008"/>
<path d="M79.3214 27.5893L71.9107 20L53.25 38.8393L60.6607 46.25L79.3214 27.5893Z" fill="#F0B90B"/>
<path d="M90.5714 38.8393L83.1607 31.25L53.25 61.3393L60.6607 68.75L90.5714 38.8393Z" fill="#F0B90B"/>
<path d="M49.4107 42.5L56.8214 50.0893L49.4107 57.5L42 50.0893L49.4107 42.5Z" fill="#F0B90B"/>
<path d="M101.821 50.0893L94.4107 42.5L64.5 72.5893L71.9107 80L101.821 50.0893Z" fill="#F0B90B"/>
</svg>
