<svg width="300" height="100" viewBox="0 0 300 100" fill="none" xmlns="http://www.w3.org/2000/svg">
<path d="M92.1776 23.8047H68.6104L66.6572 34.7214L87.9237 34.7471C98.3974 34.7471 101.494 38.5493 101.406 44.8617C101.361 48.0956 99.9588 53.5618 99.3533 55.334C97.7392 60.058 94.4242 65.4487 81.9931 65.4273L61.3207 65.4188L59.3633 76.3398H82.8778C91.1718 76.3398 94.702 75.3753 98.4344 73.6487C106.716 69.8251 111.643 61.6521 113.616 50.9861C116.557 35.1032 112.896 23.8047 92.1776 23.8047Z" fill="#008DE4"/>
<path d="M165.062 76.3653L166.724 66.8732H186.856C188.437 66.8732 189.546 65.923 189.782 64.3417C190.098 62.7589 189.308 61.8102 187.727 61.8102H178.1C170.506 61.8102 166.867 57.3811 168.212 49.7865C169.557 42.1919 174.778 37.7643 182.371 37.7643H204.243L202.504 47.2564H183.228C181.645 47.2564 180.538 48.2052 180.3 49.7865C179.984 51.3692 180.774 52.318 182.357 52.318H191.983C199.576 52.318 203.215 56.7485 201.871 64.3417C200.528 71.9348 195.384 76.3653 187.791 76.3653H165.062Z" fill="#008DE4"/>
<path fill-rule="evenodd" clip-rule="evenodd" d="M118.502 57.0606C116.287 69.5601 121.904 76.364 134.403 76.364L156.553 76.3654L163.357 37.7587H141.206C128.708 37.7587 120.639 44.5626 118.502 57.0606ZM143.102 47.2522H148.8L145.397 66.8704H139.163C132.36 66.8704 129.829 63.8645 131.094 57.0606C132.275 50.2581 136.299 47.2522 143.102 47.2522Z" fill="#008DE4"/>
<path d="M231.693 76.364L235.649 53.8966C236.362 49.4661 234.564 47.5685 230.133 47.5685H223.834L218.771 76.364H205.949L215.219 23.8047H228.041L225.573 37.7658H235.175C246.408 37.7658 250.442 42.6707 248.465 53.9037L244.509 76.3711L231.693 76.364Z" fill="#008DE4"/>
<path d="M50.8216 50.947C51.4067 48.5084 52.3471 44.5881 58.4405 44.5881H82.5704C82.5704 44.5881 82.3197 45.8774 81.5547 49.0614C81.5472 49.0927 81.5396 49.1242 81.532 49.156C80.947 51.5946 80.0065 55.5148 73.9131 55.5148H49.7832C49.7832 55.5148 50.0339 54.2256 50.7989 51.0416C50.8065 51.0103 50.814 50.9788 50.8216 50.947Z" fill="#008DE4"/>
</svg>
