<svg width="300" height="100" viewBox="0 0 300 100" fill="none" xmlns="http://www.w3.org/2000/svg">
<path d="M80.5959 27.6943C82.5765 27.6943 84.1821 26.0838 84.1821 24.0971C84.1821 22.1105 82.5765 20.5 80.5959 20.5C78.6154 20.5 77.0098 22.1105 77.0098 24.0971C77.0098 26.0838 78.6154 27.6943 80.5959 27.6943Z" fill="#131F37"/>
<path fill-rule="evenodd" clip-rule="evenodd" d="M163.405 30.9678C152.709 30.9678 143.613 40.1598 143.613 51.0134C143.613 61.9355 152.771 71.1213 163.405 71.059C174.101 71.059 183.129 61.9355 183.129 51.0134C183.129 40.0913 174.164 30.9678 163.405 30.9678ZM163.405 35.0814C171.732 35.0814 178.712 42.4064 178.712 51.0134C178.712 59.6888 171.732 67.0075 163.405 67.0075C155.078 67.0075 148.037 59.6888 148.037 51.0134C148.037 42.4064 155.078 35.0814 163.405 35.0814Z" fill="#131F37"/>
<path d="M124.975 31.6772H129.392V70.4118H124.975V31.6772Z" fill="#131F37"/>
<path d="M205.801 35.8531H192.803V31.6772H223.161V35.8531H210.157V70.4118H205.739L205.801 35.8531Z" fill="#131F37"/>
<path d="M231.671 70.4118L246.339 37.073L260.882 70.4118H265.684L249.608 33.8616C249.031 32.5112 247.747 31.6772 246.277 31.6772C244.868 31.6772 243.522 32.5112 242.945 33.8616L226.869 70.4118H231.671Z" fill="#131F37"/>
<path d="M88.2133 74.9114C88.2133 76.8981 86.6078 78.5085 84.6272 78.5085C82.6466 78.5085 81.041 76.8981 81.041 74.9114C81.041 72.9247 82.6466 71.3142 84.6272 71.3142C86.6078 71.3142 88.2133 72.9247 88.2133 74.9114Z" fill="#131F37"/>
<path d="M81.6185 36.6871C83.2804 36.6871 84.6277 35.3357 84.6277 33.6688C84.6277 32.0017 83.2804 30.6504 81.6185 30.6504C79.9566 30.6504 78.6094 32.0017 78.6094 33.6688C78.6094 35.3357 79.9566 36.6871 81.6185 36.6871Z" fill="#131F37"/>
<path d="M92.6316 34.8262C92.6316 36.4933 91.2844 37.8446 89.6225 37.8446C87.9605 37.8446 86.6133 36.4933 86.6133 34.8262C86.6133 33.1593 87.9605 31.8079 89.6225 31.8079C91.2844 31.8079 92.6316 33.1593 92.6316 34.8262Z" fill="#131F37"/>
<path d="M80.5936 44.3356C82.0088 44.3356 83.1561 43.1848 83.1561 41.7654C83.1561 40.3458 82.0088 39.1951 80.5936 39.1951C79.1784 39.1951 78.0312 40.3458 78.0312 41.7654C78.0312 43.1848 79.1784 44.3356 80.5936 44.3356Z" fill="#131F37"/>
<path d="M91.16 42.8545C91.16 44.274 90.0128 45.4248 88.5976 45.4248C87.1824 45.4248 86.0352 44.274 86.0352 42.8545C86.0352 41.435 87.1824 40.2842 88.5976 40.2842C90.0128 40.2842 91.16 41.435 91.16 42.8545Z" fill="#131F37"/>
<path d="M95.0018 47.9328C96.4171 47.9328 97.5643 46.782 97.5643 45.3625C97.5643 43.943 96.4171 42.7922 95.0018 42.7922C93.5866 42.7922 92.4395 43.943 92.4395 45.3625C92.4395 46.782 93.5866 47.9328 95.0018 47.9328Z" fill="#131F37"/>
<path d="M88.4678 49.3455C88.4678 50.5863 87.4651 51.5921 86.2281 51.5921C84.991 51.5921 83.9883 50.5863 83.9883 49.3455C83.9883 48.1047 84.991 47.0989 86.2281 47.0989C87.4651 47.0989 88.4678 48.1047 88.4678 49.3455Z" fill="#131F37"/>
<path d="M78.2242 50.497C79.4612 50.497 80.4639 49.4911 80.4639 48.2503C80.4639 47.0095 79.4612 46.0037 78.2242 46.0037C76.9872 46.0037 75.9844 47.0095 75.9844 48.2503C75.9844 49.4911 76.9872 50.497 78.2242 50.497Z" fill="#131F37"/>
<path d="M94.9385 51.8475C94.9385 53.0883 93.9358 54.0942 92.6988 54.0942C91.4618 54.0942 90.459 53.0883 90.459 51.8475C90.459 50.6067 91.4618 49.6008 92.6988 49.6008C93.9358 49.6008 94.9385 50.6067 94.9385 51.8475Z" fill="#131F37"/>
<path d="M83.0269 56.2848C84.0891 56.2848 84.9503 55.4211 84.9503 54.3555C84.9503 53.29 84.0891 52.4263 83.0269 52.4263C81.9647 52.4263 81.1035 53.29 81.1035 54.3555C81.1035 55.4211 81.9647 56.2848 83.0269 56.2848Z" fill="#131F37"/>
<path d="M91.421 56.795C91.421 57.8605 90.5599 58.7242 89.4976 58.7242C88.4353 58.7242 87.5742 57.8605 87.5742 56.795C87.5742 55.7295 88.4353 54.8657 89.4976 54.8657C90.5599 54.8657 91.421 55.7295 91.421 56.795Z" fill="#131F37"/>
<path d="M75.0854 55.1271C76.1477 55.1271 77.0089 54.2633 77.0089 53.1978C77.0089 52.1323 76.1477 51.2686 75.0854 51.2686C74.0232 51.2686 73.1621 52.1323 73.1621 53.1978C73.1621 54.2633 74.0232 55.1271 75.0854 55.1271Z" fill="#131F37"/>
<path d="M81.1038 57.8219C81.1038 58.7088 80.3872 59.4276 79.5031 59.4276C78.619 59.4276 77.9023 58.7088 77.9023 57.8219C77.9023 56.9352 78.619 56.2163 79.5031 56.2163C80.3872 56.2163 81.1038 56.9352 81.1038 57.8219Z" fill="#131F37"/>
<path d="M82.258 63.8648C83.0358 63.8648 83.6664 63.2323 83.6664 62.452C83.6664 61.6718 83.0358 61.0393 82.258 61.0393C81.4802 61.0393 80.8496 61.6718 80.8496 62.452C80.8496 63.2323 81.4802 63.8648 82.258 63.8648Z" fill="#131F37"/>
<path d="M80.0171 63.6036C80.0171 64.2429 79.5004 64.7612 78.863 64.7612C78.2257 64.7612 77.709 64.2429 77.709 63.6036C77.709 62.9643 78.2257 62.446 78.863 62.446C79.5004 62.446 80.0171 62.9643 80.0171 63.6036Z" fill="#131F37"/>
<path d="M75.8538 61.4189C76.6316 61.4189 77.2621 60.7864 77.2621 60.0062C77.2621 59.226 76.6316 58.5935 75.8538 58.5935C75.0759 58.5935 74.4453 59.226 74.4453 60.0062C74.4453 60.7864 75.0759 61.4189 75.8538 61.4189Z" fill="#131F37"/>
<path d="M73.0999 56.7328C73.0999 57.6196 72.3833 58.3385 71.4992 58.3385C70.6151 58.3385 69.8984 57.6196 69.8984 56.7328C69.8984 55.8461 70.6151 55.1272 71.4992 55.1272C72.3833 55.1272 73.0999 55.8461 73.0999 56.7328Z" fill="#131F37"/>
<path d="M71.4367 46.2586C72.3208 46.2586 73.0374 45.5397 73.0374 44.653C73.0374 43.7663 72.3208 43.0474 71.4367 43.0474C70.5526 43.0474 69.8359 43.7663 69.8359 44.653C69.8359 45.5397 70.5526 46.2586 71.4367 46.2586Z" fill="#131F37"/>
<path d="M73.5473 39.1952C73.5473 39.9754 72.9167 40.6079 72.1388 40.6079C71.361 40.6079 70.7305 39.9754 70.7305 39.1952C70.7305 38.415 71.361 37.7825 72.1388 37.7825C72.9167 37.7825 73.5473 38.415 73.5473 39.1952Z" fill="#131F37"/>
<path d="M73.6774 35.9838C74.3148 35.9838 74.8314 35.4656 74.8314 34.8263C74.8314 34.187 74.3148 33.6687 73.6774 33.6687C73.0401 33.6687 72.5234 34.187 72.5234 34.8263C72.5234 35.4656 73.0401 35.9838 73.6774 35.9838Z" fill="#131F37"/>
<path d="M72.3988 32.3869C72.3988 33.1671 71.7683 33.7995 70.9905 33.7995C70.2126 33.7995 69.582 33.1671 69.582 32.3869C69.582 31.6066 70.2126 30.9741 70.9905 30.9741C71.7683 30.9741 72.3988 31.6066 72.3988 32.3869Z" fill="#131F37"/>
<path d="M85.9113 61.8734C86.7954 61.8734 87.512 61.1545 87.512 60.2677C87.512 59.381 86.7954 58.6621 85.9113 58.6621C85.0272 58.6621 84.3105 59.381 84.3105 60.2677C84.3105 61.1545 85.0272 61.8734 85.9113 61.8734Z" fill="#131F37"/>
<path d="M68.9378 30.3268C68.9378 31.2136 68.2211 31.9325 67.3371 31.9325C66.453 31.9325 65.7363 31.2136 65.7363 30.3268C65.7363 29.4401 66.453 28.7212 67.3371 28.7212C68.2211 28.7212 68.9378 29.4401 68.9378 30.3268Z" fill="#131F37"/>
<path d="M68.4269 38.7409C69.311 38.7409 70.0277 38.022 70.0277 37.1352C70.0277 36.2484 69.311 35.5295 68.4269 35.5295C67.5428 35.5295 66.8262 36.2484 66.8262 37.1352C66.8262 38.022 67.5428 38.7409 68.4269 38.7409Z" fill="#131F37"/>
<path d="M68.5577 43.3025C68.5577 44.368 67.6966 45.2318 66.6343 45.2318C65.5721 45.2318 64.7109 44.368 64.7109 43.3025C64.7109 42.2371 65.5721 41.3733 66.6343 41.3733C67.6966 41.3733 68.5577 42.2371 68.5577 43.3025Z" fill="#131F37"/>
<path d="M60.8023 45.2319C62.0393 45.2319 63.0421 44.226 63.0421 42.9852C63.0421 41.7444 62.0393 40.7385 60.8023 40.7385C59.5652 40.7385 58.5625 41.7444 58.5625 42.9852C58.5625 44.226 59.5652 45.2319 60.8023 45.2319Z" fill="#131F37"/>
<path d="M56.5761 44.205C56.5761 45.6245 55.4288 46.7753 54.0136 46.7753C52.5984 46.7753 51.4512 45.6245 51.4512 44.205C51.4512 42.7855 52.5984 41.6348 54.0136 41.6348C55.4288 41.6348 56.5761 42.7855 56.5761 44.205Z" fill="#131F37"/>
<path d="M46.5873 50.4347C48.2492 50.4347 49.5964 49.0833 49.5964 47.4163C49.5964 45.7493 48.2492 44.3979 46.5873 44.3979C44.9254 44.3979 43.5781 45.7493 43.5781 47.4163C43.5781 49.0833 44.9254 50.4347 46.5873 50.4347Z" fill="#131F37"/>
<path d="M42.4868 53.0048C42.4868 54.9915 40.8812 56.602 38.9006 56.602C36.92 56.602 35.3145 54.9915 35.3145 53.0048C35.3145 51.0182 36.92 49.4077 38.9006 49.4077C40.8812 49.4077 42.4868 51.0182 42.4868 53.0048Z" fill="#131F37"/>
<path d="M43.5795 42.9166C45.2414 42.9166 46.5886 41.5653 46.5886 39.8983C46.5886 38.2313 45.2414 36.8799 43.5795 36.8799C41.9175 36.8799 40.5703 38.2313 40.5703 39.8983C40.5703 41.5653 41.9175 42.9166 43.5795 42.9166Z" fill="#131F37"/>
<path d="M53.5682 36.6872C53.5682 38.1067 52.421 39.2575 51.0058 39.2575C49.5906 39.2575 48.4434 38.1067 48.4434 36.6872C48.4434 35.2677 49.5906 34.1169 51.0058 34.1169C52.421 34.1169 53.5682 35.2677 53.5682 36.6872Z" fill="#131F37"/>
<path d="M49.9199 32.4489C51.3351 32.4489 52.4823 31.2981 52.4823 29.8786C52.4823 28.4591 51.3351 27.3083 49.9199 27.3083C48.5047 27.3083 47.3574 28.4591 47.3574 29.8786C47.3574 31.2981 48.5047 32.4489 49.9199 32.4489Z" fill="#131F37"/>
<path d="M58.9464 28.659C58.9464 29.8998 57.9436 30.9056 56.7066 30.9056C55.4696 30.9056 54.4668 29.8998 54.4668 28.659C54.4668 27.4182 55.4696 26.4124 56.7066 26.4124C57.9436 26.4124 58.9464 27.4182 58.9464 28.659Z" fill="#131F37"/>
<path d="M62.5328 30.9117C63.595 30.9117 64.4561 30.048 64.4561 28.9825C64.4561 27.917 63.595 27.0532 62.5328 27.0532C61.4705 27.0532 60.6094 27.917 60.6094 28.9825C60.6094 30.048 61.4705 30.9117 62.5328 30.9117Z" fill="#131F37"/>
<path d="M65.544 35.7911C65.544 36.8566 64.6829 37.7203 63.6207 37.7203C62.5585 37.7203 61.6973 36.8566 61.6973 35.7911C61.6973 34.7256 62.5585 33.8618 63.6207 33.8618C64.6829 33.8618 65.544 34.7256 65.544 35.7911Z" fill="#131F37"/>
<path d="M57.7925 37.7762C59.0295 37.7762 60.0323 36.7704 60.0323 35.5296C60.0323 34.2888 59.0295 33.283 57.7925 33.283C56.5555 33.283 55.5527 34.2888 55.5527 35.5296C55.5527 36.7704 56.5555 37.7762 57.7925 37.7762Z" fill="#131F37"/>
<path d="M52.6069 53.7144C52.6069 54.3538 52.0902 54.872 51.4529 54.872C50.8155 54.872 50.2988 54.3538 50.2988 53.7144C50.2988 53.0752 50.8155 52.5569 51.4529 52.5569C52.0902 52.5569 52.6069 53.0752 52.6069 53.7144Z" fill="#131F37"/>
<path d="M56.0627 54.2871C56.8405 54.2871 57.4711 53.6546 57.4711 52.8744C57.4711 52.0942 56.8405 51.4617 56.0627 51.4617C55.2849 51.4617 54.6543 52.0942 54.6543 52.8744C54.6543 53.6546 55.2849 54.2871 56.0627 54.2871Z" fill="#131F37"/>
<path d="M62.7269 50.7582C62.7269 51.645 62.0102 52.3639 61.1261 52.3639C60.2421 52.3639 59.5254 51.645 59.5254 50.7582C59.5254 49.8715 60.2421 49.1526 61.1261 49.1526C62.0102 49.1526 62.7269 49.8715 62.7269 50.7582Z" fill="#131F37"/>
<path d="M62.3413 57.5045C63.4035 57.5045 64.2647 56.6407 64.2647 55.5753C64.2647 54.5097 63.4035 53.646 62.3413 53.646C61.2791 53.646 60.418 54.5097 60.418 55.5753C60.418 56.6407 61.2791 57.5045 62.3413 57.5045Z" fill="#131F37"/>
<path d="M57.7933 57.1186C57.7933 58.0053 57.0766 58.7242 56.1925 58.7242C55.3085 58.7242 54.5918 58.0053 54.5918 57.1186C54.5918 56.2318 55.3085 55.5129 56.1925 55.5129C57.0766 55.5129 57.7933 56.2318 57.7933 57.1186Z" fill="#131F37"/>
<path d="M50.7502 58.6558C51.528 58.6558 52.1586 58.0233 52.1586 57.2431C52.1586 56.4628 51.528 55.8303 50.7502 55.8303C49.9723 55.8303 49.3418 56.4628 49.3418 57.2431C49.3418 58.0233 49.9723 58.6558 50.7502 58.6558Z" fill="#131F37"/>
<path d="M52.4144 61.4875C52.4144 62.3743 51.6977 63.0931 50.8136 63.0931C49.9296 63.0931 49.2129 62.3743 49.2129 61.4875C49.2129 60.6007 49.9296 59.8818 50.8136 59.8818C51.6977 59.8818 52.4144 60.6007 52.4144 61.4875Z" fill="#131F37"/>
<path d="M57.3472 63.9271C58.4095 63.9271 59.2706 63.0633 59.2706 61.9979C59.2706 60.9324 58.4095 60.0686 57.3472 60.0686C56.2849 60.0686 55.4238 60.9324 55.4238 61.9979C55.4238 63.0633 56.2849 63.9271 57.3472 63.9271Z" fill="#131F37"/>
<path d="M67.2061 60.8402C67.2061 62.0809 66.2034 63.0868 64.9663 63.0868C63.7294 63.0868 62.7266 62.0809 62.7266 60.8402C62.7266 59.5994 63.7294 58.5935 64.9663 58.5935C66.2034 58.5935 67.2061 59.5994 67.2061 60.8402Z" fill="#131F37"/>
<path d="M69.4511 68.6818C70.8663 68.6818 72.0135 67.531 72.0135 66.1116C72.0135 64.692 70.8663 63.5413 69.4511 63.5413C68.0359 63.5413 66.8887 64.692 66.8887 66.1116C66.8887 67.531 68.0359 68.6818 69.4511 68.6818Z" fill="#131F37"/>
<path d="M62.2725 67.2005C62.2725 68.4413 61.2698 69.4472 60.0327 69.4472C58.7958 69.4472 57.793 68.4413 57.793 67.2005C57.793 65.9597 58.7958 64.9539 60.0327 64.9539C61.2698 64.9539 62.2725 65.9597 62.2725 67.2005Z" fill="#131F37"/>
<path d="M54.7222 73.8161C55.9592 73.8161 56.962 72.8102 56.962 71.5694C56.962 70.3287 55.9592 69.3228 54.7222 69.3228C53.4852 69.3228 52.4824 70.3287 52.4824 71.5694C52.4824 72.8102 53.4852 73.8161 54.7222 73.8161Z" fill="#131F37"/>
<path d="M61.7029 76.9027C61.7029 78.3223 60.5558 79.473 59.1406 79.473C57.7254 79.473 56.5781 78.3223 56.5781 76.9027C56.5781 75.4833 57.7254 74.3325 59.1406 74.3325C60.5558 74.3325 61.7029 75.4833 61.7029 76.9027Z" fill="#131F37"/>
<path d="M70.9232 80.5C72.5851 80.5 73.9324 79.1487 73.9324 77.4817C73.9324 75.8147 72.5851 74.4634 70.9232 74.4634C69.2613 74.4634 67.9141 75.8147 67.9141 77.4817C67.9141 79.1487 69.2613 80.5 70.9232 80.5Z" fill="#131F37"/>
<path d="M67.0194 72.5342C67.0194 73.9536 65.8722 75.1044 64.457 75.1044C63.0418 75.1044 61.8945 73.9536 61.8945 72.5342C61.8945 71.1146 63.0418 69.9639 64.457 69.9639C65.8722 69.9639 67.0194 71.1146 67.0194 72.5342Z" fill="#131F37"/>
<path d="M75.8548 74.0775C77.5167 74.0775 78.864 72.7262 78.864 71.0591C78.864 69.3922 77.5167 68.0408 75.8548 68.0408C74.193 68.0408 72.8457 69.3922 72.8457 71.0591C72.8457 72.7262 74.193 74.0775 75.8548 74.0775Z" fill="#131F37"/>
<path d="M53.9542 66.3665C53.9542 67.4321 53.0931 68.2958 52.0308 68.2958C50.9685 68.2958 50.1074 67.4321 50.1074 66.3665C50.1074 65.301 50.9685 64.4373 52.0308 64.4373C53.0931 64.4373 53.9542 65.301 53.9542 66.3665Z" fill="#131F37"/>
</svg>
