<svg width="300" height="100" viewBox="0 0 26 26" fill="none" xmlns="http://www.w3.org/2000/svg">
<path opacity="0.2" d="M13 26C20.1797 26 26 20.1797 26 13C26 5.8203 20.1797 0 13 0C5.8203 0 0 5.8203 0 13C0 20.1797 5.8203 26 13 26Z" fill="#1F53C0"/>
<path fill-rule="evenodd" clip-rule="evenodd" d="M8.7526 6.30042C10.7289 5.1533 13.1425 4.77947 15.3685 5.30055C17.5172 5.79027 19.4798 7.12217 20.6653 8.9932C21.384 10.1189 21.8474 11.4233 21.9119 12.7633C21.9346 12.625 21.9493 12.4859 21.9526 12.3457V13.8391C21.901 14.2168 21.8697 14.5977 21.7915 14.9715C21.4158 16.911 20.3293 18.6898 18.8198 19.9524C18.0977 20.5613 17.2746 21.044 16.4076 21.4135C15.4258 21.8016 14.3796 22.0343 13.3249 22.0742C11.5836 22.1455 9.81774 21.7032 8.33422 20.7803C6.72704 19.8151 5.46622 18.2809 4.8422 16.5086C4.79577 16.3837 4.71285 16.2754 4.68063 16.1448C4.67068 16.084 4.74744 16.0883 4.78629 16.0906C4.7825 16.1619 4.77729 16.2331 4.77065 16.3044C4.99619 16.7404 5.23168 17.1751 5.54771 17.5541C5.89644 17.9617 6.27976 18.3426 6.71377 18.6594C7.87983 19.5026 9.29512 19.9586 10.7213 20.0759C11.1638 20.093 11.6073 20.0916 12.0504 20.0825C12.5644 20.0707 13.0667 19.9524 13.5708 19.8636C14.2351 19.7192 14.8833 19.4978 15.4988 19.209C15.8973 18.99 16.3047 18.7867 16.6805 18.5298C17.8129 17.7892 18.7771 16.7737 19.3864 15.5582C19.4916 15.3682 19.5447 15.1563 19.6267 14.9568C19.8356 14.4927 19.9323 13.9873 19.9958 13.4848C20.1251 12.5324 20.0176 11.5416 19.6338 10.6566C19.3376 9.9888 18.996 9.32665 18.4971 8.78562C18.2886 8.53862 18.0508 8.3187 17.8015 8.1135C16.4199 6.9868 14.6232 6.44055 12.8554 6.44007C11.3093 6.41205 9.76372 6.78825 8.38492 7.48507C7.32452 8.0299 6.35794 8.77707 5.61168 9.71282C5.34018 10.0368 5.12791 10.4039 4.90095 10.7597C5.61831 8.88585 7.01938 7.29602 8.7526 6.30042Z" fill="#1F53C0"/>
<path fill-rule="evenodd" clip-rule="evenodd" d="M10.2982 9.33947C10.6289 9.31715 10.9601 9.30005 11.2918 9.29482C11.5713 9.2687 11.8191 9.4226 12.0821 9.48957C12.1788 9.58125 12.2697 9.67957 12.3517 9.78502C12.3683 9.93132 12.3972 10.0762 12.4233 10.2211C12.6464 10.014 12.8412 9.75272 13.1425 9.65725C13.3704 9.55512 13.6324 9.5442 13.8641 9.64062C13.8826 9.65535 13.9191 9.68575 13.9371 9.70095C13.8087 9.83965 13.667 9.97265 13.5822 10.1451C13.4401 10.4377 13.332 10.7455 13.1908 11.0385C13.0245 11.3368 12.7905 11.6005 12.4986 11.781C12.4233 11.8389 12.346 11.895 12.2664 11.9472C11.8334 12.2308 11.3306 12.3757 10.8327 12.4954C10.4778 12.6037 10.1129 12.6759 9.74478 12.7186C9.74715 12.6996 9.75236 12.6611 9.7552 12.6417C10.0456 12.5234 10.3205 12.37 10.5886 12.2075C10.9558 11.9957 11.2771 11.6565 11.3738 11.2333C11.4325 11.058 11.4306 10.8728 11.4117 10.6913C11.3325 10.5464 11.1648 10.4358 11.1672 10.2576C11.3107 10.2543 11.4557 10.2633 11.5988 10.2472C11.6092 10.2325 11.6306 10.2025 11.641 10.1873C11.3486 10.1802 11.0468 10.2538 10.7654 10.1394C10.6844 10.0809 10.5863 10.0273 10.5697 9.91802C10.7147 9.9033 10.8658 9.89475 10.998 9.82492C11.0895 9.81495 11.1809 9.80972 11.2728 9.80545C11.2738 9.79642 11.2747 9.77885 11.2752 9.76982C11.0525 9.75842 10.8303 9.77932 10.6081 9.78502C10.5948 9.80402 10.5678 9.8425 10.5545 9.86197C10.3678 9.85865 10.1802 9.87432 9.99353 9.8596C9.51403 9.75367 9.02363 9.84962 8.54413 9.90757C8.55408 9.8805 8.57445 9.82635 8.5844 9.79975C8.85732 9.6848 9.13877 9.58837 9.43158 9.5423C9.70403 9.41547 9.99637 9.34137 10.2982 9.33947Z" fill="#1F53C0"/>
<path fill-rule="evenodd" clip-rule="evenodd" d="M9.32733 11.002C9.69975 10.8742 10.0987 10.8832 10.4868 10.9036C10.7971 10.9307 11.0814 11.0632 11.3714 11.1663L11.3737 11.2333C11.2771 11.6565 10.9558 11.9957 10.5886 12.2075C10.2892 12.1287 9.95514 12.0949 9.66422 12.2237C9.16624 12.4255 8.79761 12.9523 8.8412 13.4986C8.82983 13.7931 8.96487 14.061 9.11554 14.3037C9.37472 14.5987 9.75472 14.8072 10.156 14.7739C10.8535 14.8015 11.4533 14.137 11.4244 13.4515C11.4462 13.0744 11.2453 12.7362 11.0065 12.4626C10.9483 12.4726 10.8905 12.4835 10.8326 12.4954C11.3306 12.3757 11.8333 12.2308 12.2664 11.9472C12.3095 12.0028 12.3526 12.0588 12.3953 12.1154C12.528 12.3595 12.6478 12.6132 12.7113 12.8853C12.8307 13.4468 12.78 14.0562 12.5156 14.5706C12.1262 15.3791 11.2813 15.9591 10.3849 16.0089L10.3517 16.0298C10.0802 16.0384 9.80826 16.0279 9.54245 15.9686C9.28896 15.9182 9.05063 15.8128 8.8194 15.6997C8.20629 15.3539 7.73058 14.7592 7.56048 14.0714C7.43302 13.537 7.47424 12.9613 7.69315 12.4564C7.98975 11.7605 8.61093 11.2266 9.32733 11.002Z" fill="white"/>
<path fill-rule="evenodd" clip-rule="evenodd" d="M3.2137 12.1956C3.19 11.7985 3.20375 11.4005 3.20422 11.0029C4.61856 11.0062 6.0329 11.0039 7.44724 11.0039C7.44961 11.4 7.46903 11.7976 7.43539 12.1923C6.96158 12.2545 6.47734 12.1657 6.00163 12.2275C6.00399 13.4454 5.99215 14.6633 6.00779 15.8807C5.55198 15.8626 5.09522 15.893 4.63988 15.8645C4.65504 14.982 4.64225 14.099 4.64651 13.2164C4.64178 12.8796 4.65789 12.5424 4.63514 12.2061C4.16133 12.2047 3.68656 12.2218 3.2137 12.1956Z" fill="white"/>
<path fill-rule="evenodd" clip-rule="evenodd" d="M15.3668 11.0114C15.1396 11.0118 14.9123 11.0122 14.6852 11.0067C14.6265 11.1411 14.5734 11.2779 14.5213 11.4152C14.3555 11.8655 14.185 12.314 14.0146 12.7626C13.8441 13.2111 13.6736 13.6596 13.5078 14.1099C13.4366 14.3007 13.3638 14.491 13.291 14.6813C13.138 15.0813 12.9849 15.4815 12.8468 15.8864C13.0331 15.8868 13.2195 15.8867 13.4059 15.8866C13.6855 15.8865 13.9653 15.8864 14.2451 15.8878C14.2653 15.8347 14.2869 15.7819 14.3085 15.729C14.3736 15.5699 14.4388 15.4105 14.4659 15.2404C14.5597 15.2166 14.6563 15.2048 14.7535 15.2081C15.0499 15.214 15.3463 15.211 15.6428 15.2081C15.7529 15.207 15.863 15.2059 15.9731 15.2052C16.035 15.2121 16.0517 15.2712 16.0679 15.3288C16.0752 15.355 16.0825 15.3808 16.0939 15.4014C16.1098 15.4433 16.1261 15.4851 16.1423 15.5269C16.1886 15.6457 16.2348 15.7645 16.273 15.8864C16.4461 15.8873 16.6193 15.887 16.7924 15.8867C16.9812 15.8864 17.1699 15.8861 17.3585 15.8873C17.3799 15.8871 17.4015 15.8874 17.4232 15.8877C17.5175 15.8892 17.6135 15.8907 17.6982 15.8432C17.7094 15.845 17.7271 15.8477 17.7442 15.8503C17.7581 15.8524 17.7718 15.8545 17.7812 15.856C17.7493 15.8416 17.7179 15.827 17.6867 15.8125C17.6704 15.8049 17.6542 15.7974 17.6381 15.79C17.6182 15.7026 17.5926 15.6166 17.5618 15.533C17.5021 15.3933 17.4493 15.251 17.3965 15.1088C17.3504 14.9846 17.3044 14.8605 17.2538 14.7383C17.1773 14.5216 17.0952 14.3069 17.0131 14.0922C16.9249 13.8615 16.8366 13.6307 16.7553 13.3974C16.7362 13.3532 16.7178 13.309 16.6994 13.2649C16.6932 13.2501 16.6871 13.2354 16.681 13.2207C16.6483 13.1193 16.6097 13.0201 16.571 12.9209C16.5344 12.827 16.4979 12.7332 16.4663 12.6374C16.3678 12.3866 16.273 12.1344 16.1806 11.8817C16.129 11.7558 16.0811 11.629 16.0361 11.5007C15.9726 11.3406 15.9101 11.1791 15.8641 11.0129C15.6984 11.0109 15.5326 11.0112 15.3668 11.0114ZM14.9895 13.7081C15.0072 13.6539 15.0249 13.5998 15.0401 13.5451C15.0759 13.4452 15.1056 13.3433 15.1352 13.2414C15.1761 13.1006 15.217 12.9598 15.2742 12.8245C15.3245 13.007 15.3804 13.1878 15.4363 13.3686C15.5096 13.6053 15.5828 13.8421 15.6433 14.0823C15.5604 14.0825 15.4775 14.0824 15.3946 14.0824C15.2288 14.0823 15.063 14.0822 14.8975 14.0838C14.909 13.9542 14.9493 13.8311 14.9895 13.7081Z" fill="white"/>
</svg>
