<svg width="300" height="100" viewBox="0 0 300 100" fill="none" xmlns="http://www.w3.org/2000/svg">
<path d="M55.0473 67.7333L37.3142 50.0001L55.107 32.2667L66.3108 43.4697C68.2871 45.4469 71.5225 45.4469 73.5 43.4697C75.4763 41.4928 75.4763 38.2577 73.5 36.2805L58.7016 21.4829C56.7252 19.5057 53.4899 19.5057 51.5124 21.4829L30.1847 42.8109V30.2298C30.1847 27.4139 27.9076 25.1375 25.0923 25.1375C22.277 25.1375 20 27.4139 20 30.2298V69.8901C20 72.706 22.277 74.9825 25.0923 74.9825C27.9076 74.9825 30.1847 72.646 30.1847 69.8901V57.1894L51.4527 78.5171C53.4302 80.4943 56.6644 80.4943 58.6419 78.5171L73.4392 63.7195C75.4167 61.7423 75.4167 58.5072 73.4392 56.5303C71.4628 54.5531 68.2275 54.5531 66.25 56.5303L55.0473 67.7333Z" fill="#28CD96"/>
<path d="M50.0146 50.0001C50.0146 47.1843 52.2917 44.9078 55.107 44.9078C57.8626 44.9078 60.1396 47.1843 60.1993 50.0001C60.1993 52.8157 57.9234 55.0925 55.107 55.0925C52.2917 55.0925 50.0146 52.8157 50.0146 50.0001Z" fill="#28CD96"/>
<path d="M172.77 50.0001C172.77 48.3225 172.77 46.8847 172.831 45.7465C172.891 44.6082 172.95 43.7096 173.07 42.9906C173.609 39.9351 175.946 38.1378 178.941 38.1378C180.919 38.1378 182.655 38.8568 183.794 40.5342C184.274 41.2532 184.633 42.0919 184.873 43.0505C184.873 43.1705 184.932 43.2301 185.052 43.2301H191.762C191.817 43.2301 191.847 43.2176 191.863 43.1921C191.882 43.1623 191.882 43.1152 191.882 43.0505C191.163 38.9168 188.946 35.1423 184.992 33.2853C183.195 32.4463 181.098 31.9672 178.822 31.9672C175.047 31.9672 171.812 33.2853 169.236 35.8613C167.739 37.3591 166.779 39.1564 166.36 41.1933C165.941 43.1705 165.761 46.106 165.761 50.0001C165.761 53.8943 165.941 56.8298 166.36 58.8067C166.779 60.8439 167.798 62.6412 169.236 64.139C171.812 66.715 175.047 68.0331 178.822 68.0331C181.098 68.0331 183.135 67.6136 184.992 66.715C188.886 64.8577 191.163 61.1435 191.882 56.9498C191.882 56.8298 191.882 56.7699 191.762 56.7699H185.052C184.996 56.7699 184.952 56.7833 184.923 56.8102C184.889 56.8401 184.873 56.8866 184.873 56.9498C184.633 57.9081 184.274 58.7471 183.794 59.4658C182.655 61.0835 180.919 61.8022 178.941 61.8622C175.946 61.8622 173.609 60.0649 173.07 57.0094C172.95 56.2907 172.831 55.3921 172.831 54.2538C172.77 53.1153 172.77 51.6775 172.77 50.0001Z" fill="#28CD96"/>
<path fill-rule="evenodd" clip-rule="evenodd" d="M224.233 50.0001C224.233 48.4424 224.233 47.0046 224.172 45.6865C224.113 44.3687 223.993 43.1105 223.813 41.9723C223.634 40.8337 223.274 39.7555 222.795 38.7369C222.315 37.7186 221.597 36.76 220.698 35.8613C219.44 34.6031 218.062 33.6445 216.504 32.9858C214.947 32.3267 213.15 31.9672 211.113 31.9672C210.89 31.9672 210.671 31.9716 210.455 31.98C210.05 31.9958 209.655 32.0265 209.27 32.0713C208.766 32.1295 208.281 32.212 207.813 32.3176C207.073 32.4841 206.376 32.7084 205.721 32.9858C204.163 33.6445 202.725 34.6031 201.467 35.8613C200.569 36.76 199.909 37.7186 199.43 38.7369C198.95 39.7555 198.591 40.8337 198.411 41.9723C198.232 43.1105 198.111 44.3687 198.052 45.6865C197.992 47.0046 197.992 48.4424 197.992 50.0001C197.992 51.5579 197.992 52.9357 198.052 54.3135C198.111 55.6316 198.232 56.8898 198.411 58.028C198.591 59.1663 198.95 60.2448 199.43 61.2631C199.909 62.2817 200.628 63.2403 201.467 64.139C202.725 65.3969 204.102 66.3555 205.721 67.0145C207.278 67.6736 209.075 68.0331 211.113 68.0331C213.15 68.0331 214.886 67.6736 216.504 67.0145C218.062 66.3555 219.5 65.3969 220.698 64.139C221.132 63.7046 221.51 63.2561 221.846 62.7936C222.205 62.2995 222.517 61.7894 222.795 61.2631C223.274 60.2448 223.634 59.1663 223.813 58.028C223.993 56.8898 224.172 55.6316 224.172 54.3135C224.233 52.9357 224.233 51.5579 224.233 50.0001ZM217.343 50.0001C217.343 51.6775 217.343 53.1153 217.283 54.2538C217.223 55.3921 217.163 56.2907 216.983 57.0094C216.899 57.5167 216.784 57.9643 216.64 58.3311C216.581 58.4844 216.515 58.6236 216.445 58.7471C216.335 58.9676 216.225 59.1753 216.103 59.3705L216.002 59.5234L215.923 59.6358C215.827 59.7651 215.723 59.8882 215.606 60.0049C215.126 60.604 214.467 61.0235 213.749 61.3831C212.97 61.7426 212.131 61.8622 211.172 61.9222C210.817 61.9222 210.477 61.8973 210.151 61.8479C209.6 61.7639 209.086 61.6089 208.596 61.3831C207.818 61.0235 207.218 60.604 206.679 60.0049C206.507 59.8332 206.363 59.6478 206.233 59.4486L206.155 59.3234L206.018 59.089L205.943 58.9477L205.84 58.7471C205.6 58.2676 205.421 57.7285 205.301 57.0094C205.263 56.7865 205.226 56.5461 205.192 56.2866L205.158 56.0061L205.126 55.6843C205.088 55.2549 205.062 54.7798 205.062 54.2538C205.001 53.1153 205.001 51.7375 205.001 50.0001C205.001 48.3225 205.001 46.8847 205.062 45.7465C205.122 44.6082 205.181 43.7096 205.301 42.9906C205.328 42.8282 205.358 42.672 205.391 42.5222L205.426 42.3739L205.496 42.1068C205.537 41.9664 205.58 41.8342 205.627 41.7107C205.691 41.5411 205.763 41.3878 205.84 41.2532C205.947 41.04 206.053 40.8387 206.171 40.6491C206.317 40.4125 206.48 40.1946 206.679 39.9951C207.159 39.396 207.818 38.9768 208.596 38.6172C209.375 38.2577 210.214 38.1378 211.172 38.0781C212.131 38.0781 212.97 38.2577 213.749 38.6172C214.169 38.8273 214.568 39.0581 214.924 39.3331C215.176 39.5285 215.407 39.7461 215.606 39.9951C215.965 40.3546 216.205 40.7741 216.445 41.2532C216.683 41.7324 216.864 42.2718 216.983 42.9906C217.104 43.7096 217.223 44.6082 217.283 45.7465C217.283 46.0367 217.287 46.3465 217.293 46.6747L217.307 47.4045L217.314 47.743C217.329 48.4348 217.343 49.1895 217.343 50.0001Z" fill="#28CD96"/>
<path d="M279.471 32.8658C279.471 32.5063 279.171 32.2667 278.872 32.2667H273.18C272.82 32.2667 272.581 32.5663 272.581 32.8658V54.0139L258.622 32.4463C258.502 32.3267 258.441 32.2667 258.262 32.2667H252.93C252.631 32.2667 252.331 32.5663 252.331 32.8658V67.1345C252.331 67.4937 252.631 67.7336 252.93 67.7336H258.622C258.981 67.7336 259.221 67.434 259.221 67.1345V45.9261L273.18 67.5537L273.267 67.6373C273.303 67.6692 273.338 67.6932 273.38 67.7093C273.398 67.7163 273.418 67.7216 273.439 67.7257C273.468 67.7309 273.502 67.7336 273.539 67.7336H278.872C279.231 67.7336 279.471 67.434 279.471 67.1345V32.8658Z" fill="#28CD96"/>
<path d="M241.051 32.5715C241.068 32.6014 241.082 32.633 241.093 32.6663L241.104 32.6982C241.119 32.7506 241.127 32.8064 241.127 32.8658V67.1345C241.127 67.434 240.887 67.7336 240.528 67.7336H234.837C234.537 67.7336 234.238 67.4937 234.238 67.1345V32.8658C234.238 32.5663 234.477 32.2667 234.837 32.2667H240.528C240.735 32.2667 240.942 32.3817 241.051 32.5715Z" fill="#28CD96"/>
<path d="M101.118 32.2667C101.418 32.2667 101.717 32.5063 101.717 32.8658V47.2442L114.179 32.3267C114.239 32.2067 114.298 32.2067 114.418 32.2067H122.027C122.386 32.2067 122.506 32.4463 122.267 32.7459L110.944 46.3456L123.285 67.2541C123.404 67.5537 123.345 67.7333 123.045 67.7333H116.096C115.916 67.7333 115.796 67.6736 115.736 67.5537L106.33 51.5576L101.717 57.0694V67.1342C101.717 67.4337 101.477 67.7333 101.118 67.7333H95.4268C95.2946 67.7333 95.1623 67.6868 95.0559 67.6037C94.9213 67.4987 94.8277 67.3352 94.8277 67.1342V32.8658C94.8277 32.5663 95.0676 32.2667 95.4268 32.2667H101.118Z" fill="#28CD96"/>
<path d="M143.355 61.8622C140.121 61.8622 137.244 58.8667 137.244 55.3321V32.8658C137.244 32.6897 137.173 32.5426 137.064 32.4381C136.952 32.329 136.799 32.2667 136.645 32.2667H130.954C130.595 32.2667 130.355 32.5663 130.355 32.8658V55.2721C130.355 63.1204 136.226 68.0928 143.416 68.0928C150.605 68.0928 156.475 63.1204 156.475 55.2721V32.8658C156.475 32.5063 156.176 32.2667 155.876 32.2667H150.185C149.825 32.2667 149.586 32.5663 149.586 32.8658V55.3321C149.466 58.8667 146.53 61.8622 143.355 61.8622Z" fill="#28CD96"/>
</svg>
