<svg id='qrcode_24' width='24' height='24' viewBox='0 0 24 24' xmlns='http://www.w3.org/2000/svg' xmlns:xlink='http://www.w3.org/1999/xlink'><rect width='24' height='24' stroke='none' fill='#000000' opacity='0'/>


<g transform="matrix(1 0 0 1 12 12)" >
<g style="" >
<g transform="matrix(1 0 0 1 0 0)" >
<path style="stroke: none; stroke-width: 2; stroke-dasharray: none; stroke-linecap: round; stroke-dashoffset: 0; stroke-linejoin: round; stroke-miterlimit: 4; fill: none; fill-rule: nonzero; opacity: 1;" transform=" translate(-12, -12)" d="M 0 0 L 24 0 L 24 24 L 0 24 z" stroke-linecap="round" />
</g>
<g transform="matrix(1 0 0 1 -5 -5)" >
<rect style="stroke: rgb(33,33,33); stroke-width: 2; stroke-dasharray: none; stroke-linecap: round; stroke-dashoffset: 0; stroke-linejoin: round; stroke-miterlimit: 4; fill: none; fill-rule: nonzero; opacity: 1;" x="-3" y="-3" rx="1" ry="1" width="6" height="6" />
</g>
<g transform="matrix(1 0 0 1 -5 5.01)" >
<line style="stroke: rgb(33,33,33); stroke-width: 2; stroke-dasharray: none; stroke-linecap: round; stroke-dashoffset: 0; stroke-linejoin: round; stroke-miterlimit: 4; fill: none; fill-rule: nonzero; opacity: 1;" x1="0" y1="-0.005000000000000782" x2="0" y2="0.005000000000000782" />
</g>
<g transform="matrix(1 0 0 1 5 -5)" >
<rect style="stroke: rgb(33,33,33); stroke-width: 2; stroke-dasharray: none; stroke-linecap: round; stroke-dashoffset: 0; stroke-linejoin: round; stroke-miterlimit: 4; fill: none; fill-rule: nonzero; opacity: 1;" x="-3" y="-3" rx="1" ry="1" width="6" height="6" />
</g>
<g transform="matrix(1 0 0 1 -5 -5)" >
<line style="stroke: rgb(33,33,33); stroke-width: 2; stroke-dasharray: none; stroke-linecap: round; stroke-dashoffset: 0; stroke-linejoin: round; stroke-miterlimit: 4; fill: none; fill-rule: nonzero; opacity: 1;" x1="0" y1="-0.004999999999999893" x2="0" y2="0.004999999999999893" />
</g>
<g transform="matrix(1 0 0 1 -5 5)" >
<rect style="stroke: rgb(33,33,33); stroke-width: 2; stroke-dasharray: none; stroke-linecap: round; stroke-dashoffset: 0; stroke-linejoin: round; stroke-miterlimit: 4; fill: none; fill-rule: nonzero; opacity: 1;" x="-3" y="-3" rx="1" ry="1" width="6" height="6" />
</g>
<g transform="matrix(1 0 0 1 5 -5)" >
<line style="stroke: rgb(33,33,33); stroke-width: 2; stroke-dasharray: none; stroke-linecap: round; stroke-dashoffset: 0; stroke-linejoin: round; stroke-miterlimit: 4; fill: none; fill-rule: nonzero; opacity: 1;" x1="0" y1="-0.004999999999999893" x2="0" y2="0.004999999999999893" />
</g>
<g transform="matrix(1 0 0 1 3.5 2)" >
<line style="stroke: rgb(33,33,33); stroke-width: 2; stroke-dasharray: none; stroke-linecap: round; stroke-dashoffset: 0; stroke-linejoin: round; stroke-miterlimit: 4; fill: none; fill-rule: nonzero; opacity: 1;" x1="-1.5" y1="0" x2="1.5" y2="0" />
</g>
<g transform="matrix(1 0 0 1 8 2)" >
<line style="stroke: rgb(33,33,33); stroke-width: 2; stroke-dasharray: none; stroke-linecap: round; stroke-dashoffset: 0; stroke-linejoin: round; stroke-miterlimit: 4; fill: none; fill-rule: nonzero; opacity: 1;" x1="0" y1="-0.004999999999999893" x2="0" y2="0.004999999999999893" />
</g>
<g transform="matrix(1 0 0 1 2 3.5)" >
<line style="stroke: rgb(33,33,33); stroke-width: 2; stroke-dasharray: none; stroke-linecap: round; stroke-dashoffset: 0; stroke-linejoin: round; stroke-miterlimit: 4; fill: none; fill-rule: nonzero; opacity: 1;" x1="0" y1="-1.5" x2="0" y2="1.5" />
</g>
<g transform="matrix(1 0 0 1 3.5 8)" >
<line style="stroke: rgb(33,33,33); stroke-width: 2; stroke-dasharray: none; stroke-linecap: round; stroke-dashoffset: 0; stroke-linejoin: round; stroke-miterlimit: 4; fill: none; fill-rule: nonzero; opacity: 1;" x1="-1.5" y1="0" x2="1.5" y2="0" />
</g>
<g transform="matrix(1 0 0 1 6.5 5)" >
<line style="stroke: rgb(33,33,33); stroke-width: 2; stroke-dasharray: none; stroke-linecap: round; stroke-dashoffset: 0; stroke-linejoin: round; stroke-miterlimit: 4; fill: none; fill-rule: nonzero; opacity: 1;" x1="-1.5" y1="0" x2="1.5" y2="0" />
</g>
<g transform="matrix(1 0 0 1 8 6.5)" >
<line style="stroke: rgb(33,33,33); stroke-width: 2; stroke-dasharray: none; stroke-linecap: round; stroke-dashoffset: 0; stroke-linejoin: round; stroke-miterlimit: 4; fill: none; fill-rule: nonzero; opacity: 1;" x1="0" y1="-1.5" x2="0" y2="1.5" />
</g>
</g>
</g>
</svg>