<svg width="300" height="100" viewBox="0 0 300 100" fill="none" xmlns="http://www.w3.org/2000/svg">
<path d="M48.8096 49.2117C57.6736 49.2117 65.0824 47.7123 66.8956 45.7101C65.358 44.0121 59.7964 42.6759 52.736 42.309V46.5388C51.4704 46.6046 50.1569 46.6392 48.8096 46.6392C47.4624 46.6392 46.1487 46.6046 44.8831 46.5388V42.309C37.8227 42.6759 32.2613 44.0121 30.7238 45.7101C32.5369 47.7123 39.9458 49.2117 48.8096 49.2117Z" fill="#009393"/>
<path fill-rule="evenodd" clip-rule="evenodd" d="M28.4066 20.0264H69.9227C70.9133 20.0264 71.8284 20.5492 72.3224 21.3974L84.4178 42.1641C85.0451 43.241 84.8587 44.6003 83.964 45.4737L50.6713 77.9708C49.5929 79.0234 47.858 79.0234 46.7793 77.9708L13.5317 45.5174C12.6162 44.6239 12.4448 43.225 13.118 42.1414L26.047 21.3308C26.5505 20.5203 27.444 20.0264 28.4066 20.0264ZM64.5622 29.298V35.1248H52.736V39.1647C61.042 39.5964 67.2736 41.3694 67.32 43.4948L67.3196 47.9254C67.2733 50.0508 61.042 51.8239 52.736 52.2557V62.1699H44.8831V52.2557C36.5773 51.8239 30.3456 50.0508 30.2993 47.9254L30.2996 43.4948C30.3458 41.3694 36.5773 39.5964 44.8831 39.1647V35.1248H33.0569V29.298H64.5622Z" fill="#009393"/>
<path d="M100.625 31.2956L110.222 30.2292V39.4263H118.552V47.4238H110.155V59.8198C110.155 62.7523 111.399 64.2185 113.887 64.2185C115.486 64.2185 116.819 63.9518 117.886 63.4187L120.085 71.416C117.908 72.2603 115.598 72.7491 113.154 72.8822C109.288 73.06 106.223 72.1491 103.957 70.1498C101.735 68.106 100.625 64.6627 100.625 59.8198V47.4238H94.7598V39.4263H100.625V31.2956Z" fill="#009393"/>
<path fill-rule="evenodd" clip-rule="evenodd" d="M130.278 58.8201H154.47C155.492 52.2888 154.448 47.2459 151.338 43.6915C148.272 40.1371 143.829 38.3599 138.009 38.3599C132.677 38.3599 128.434 39.9372 125.28 43.0917C122.125 46.2019 120.548 50.2895 120.548 55.3544C120.548 60.7306 122.147 64.9959 125.346 68.1504C128.59 71.305 133.144 72.8821 139.009 72.8821C145.14 72.8821 149.85 71.2606 153.137 68.017L147.739 62.019C145.74 63.7517 142.896 64.6181 139.209 64.6181C136.632 64.6181 134.566 64.085 133.011 63.0186C131.455 61.9079 130.545 60.5084 130.278 58.8201ZM145.873 51.8224H130.278C130.767 50.1784 131.7 48.8899 133.077 47.9568C134.455 47.0237 136.098 46.5572 138.009 46.5572C140.142 46.5572 141.963 47.0237 143.474 47.9568C144.985 48.8455 145.784 50.1339 145.873 51.8224Z" fill="#009393"/>
<path d="M162.471 31.2956L172.068 30.2292V39.4263H180.399V47.4238H172.002V59.8198C172.002 62.7523 173.246 64.2185 175.734 64.2185C177.333 64.2185 178.666 63.9518 179.732 63.4187L181.932 71.416C179.755 72.2603 177.444 72.7491 175.001 72.8822C171.135 73.06 168.069 72.1491 165.804 70.1498C163.582 68.106 162.471 64.6627 162.471 59.8198V47.4238H156.606V39.4263H162.471V31.2956Z" fill="#009393"/>
<path d="M195.194 25.4973H185.53V72.149H195.127V55.4877C195.127 52.9552 195.816 50.9781 197.193 49.5564C198.615 48.1346 200.37 47.4237 202.458 47.4237C204.369 47.4237 205.879 48.0457 206.99 49.2897C208.145 50.5337 208.723 52.2888 208.723 54.5548V72.149H218.32V54.4881C218.32 43.9581 213.943 38.6931 205.191 38.6931C200.881 38.6931 197.549 40.226 195.194 43.2917V25.4973Z" fill="#009393"/>
<path fill-rule="evenodd" clip-rule="evenodd" d="M255.958 58.8201H231.766C232.033 60.5084 232.944 61.9079 234.498 63.0186C236.053 64.085 238.12 64.6181 240.698 64.6181C244.385 64.6181 247.229 63.7517 249.227 62.019L254.627 68.017C251.338 71.2606 246.629 72.8821 240.498 72.8821C234.631 72.8821 230.078 71.305 226.835 68.1504C223.636 64.9959 222.036 60.7306 222.036 55.3544C222.036 50.2895 223.613 46.2019 226.768 43.0917C229.923 39.9372 234.165 38.3599 239.498 38.3599C245.318 38.3599 249.76 40.1371 252.827 43.6915C255.936 47.2459 256.98 52.2888 255.958 58.8201ZM231.766 51.8224H247.362C247.273 50.1339 246.473 48.8455 244.962 47.9568C243.451 47.0237 241.629 46.5572 239.498 46.5572C237.587 46.5572 235.942 47.0237 234.565 47.9568C233.188 48.8899 232.255 50.1784 231.766 51.8224Z" fill="#009393"/>
<path d="M268.869 39.2929H259.938V72.149H269.535V55.0212C269.535 52.6663 270.269 50.8226 271.735 49.4897C273.202 48.1123 275.022 47.4237 277.2 47.4237C279.155 47.4237 280.909 47.979 282.464 49.0897L286.464 41.4921C284.197 39.4928 281.509 38.4932 278.4 38.4932C274.622 38.4932 271.691 39.9594 269.602 42.8917L268.869 39.2929Z" fill="#009393"/>
</svg>
