<svg width="300" height="100" viewBox="0 0 26 26" fill="none" xmlns="http://www.w3.org/2000/svg">
<path opacity="0.2" d="M13 26C20.1797 26 26 20.1797 26 13C26 5.8203 20.1797 0 13 0C5.8203 0 0 5.8203 0 13C0 20.1797 5.8203 26 13 26Z" fill="#FDCE07"/>
<path fill-rule="evenodd" clip-rule="evenodd" d="M6.15576 11.6269C6.30728 11.2431 6.46546 10.8617 6.62425 10.4804C7.29819 10.4938 8.00486 10.4101 8.64182 10.6814C9.10667 10.8684 9.48789 11.2657 9.62667 11.754C9.78789 12.337 9.74425 13.0063 9.40122 13.5172C9.18607 13.8399 8.85213 14.0617 8.49758 14.2017C8.80789 14.8849 9.11455 15.5694 9.42304 16.2539C8.92728 16.2564 8.43152 16.2545 7.93576 16.2552C7.67879 15.6397 7.43152 15.0212 7.17395 14.4064C6.45516 14.4064 5.73637 14.4064 5.01819 14.4064C5.17395 14.0306 5.32728 13.6529 5.48182 13.2764C6.15213 13.2752 6.82243 13.2752 7.49273 13.2764C7.71576 13.277 7.9497 13.2306 8.1297 13.0906C8.55819 12.7814 8.53031 12.0076 8.05819 11.7546C7.88728 11.6581 7.68849 11.6226 7.49455 11.6244C7.04789 11.6275 6.60182 11.6238 6.15576 11.6269Z" fill="#FDCE07"/>
<path fill-rule="evenodd" clip-rule="evenodd" d="M16.8309 11.6244C16.9891 11.2431 17.14 10.8593 17.3018 10.4797C18.0152 10.4938 18.7746 10.4015 19.4358 10.7346C19.9146 10.9601 20.2624 11.4289 20.3503 11.9532C20.4443 12.5124 20.383 13.1395 20.0206 13.5948C19.8043 13.8772 19.4982 14.0721 19.1733 14.2029C19.4861 14.8849 19.7897 15.5719 20.1012 16.2545C19.6049 16.2558 19.1085 16.2539 18.6121 16.2558C18.3576 15.6397 18.1061 15.0231 17.8533 14.4064C17.1346 14.4052 16.4164 14.4082 15.6976 14.4052C15.8497 14.0281 16.0043 13.6516 16.1594 13.2758C16.8449 13.2758 17.5309 13.2758 18.2164 13.2764C18.563 13.2758 18.9485 13.0985 19.0594 12.7435C19.1412 12.4574 19.1182 12.106 18.9024 11.8823C18.7091 11.6898 18.4273 11.622 18.163 11.6244C17.7188 11.6257 17.2746 11.6269 16.8309 11.6244Z" fill="#FDCE07"/>
<path fill-rule="evenodd" clip-rule="evenodd" d="M10.1243 10.525C10.5582 10.5262 10.9921 10.5256 11.4261 10.525C11.9794 11.8597 12.517 13.2012 13.0752 14.5335C13.6279 13.1994 14.1697 11.861 14.7212 10.5268C15.1655 10.5244 15.6103 10.5262 16.0552 10.5256C15.2861 12.411 14.5109 14.294 13.74 16.1788C13.3061 16.1788 12.8727 16.1794 12.4388 16.1781C11.6691 14.2934 10.8927 12.411 10.1243 10.525Z" fill="#FDCE07"/>
</svg>
