<svg width="360" height="100" viewBox="0 0 360 100" fill="none" xmlns="http://www.w3.org/2000/svg">
<path d="M133.586 40.6732V64.6543H140.08V40.6732H150.649V34.9432H123.018V40.6732H133.586ZM149.032 42.1588V64.6543H155.314V54.3828C155.314 52.0908 155.781 50.393 156.715 49.247C157.649 48.101 159.007 47.5068 160.747 47.5068C161.766 47.5068 162.869 47.6766 164.015 47.9737L165.331 42.3286C163.973 41.9466 162.742 41.7343 161.638 41.7343C158.88 41.7343 156.672 42.6257 155.017 44.3234H154.932V42.1588H149.032ZM167.26 55.0194C167.26 58.2877 168.152 60.8343 169.934 62.617C171.717 64.3997 174.221 65.291 177.447 65.291C180.588 65.291 183.092 64.3997 185.044 62.5321H185.129V64.6543H191.199V42.1588H184.917V54.0857C184.917 55.6986 184.365 57.0568 183.262 58.0754C182.158 59.0941 180.758 59.6034 179.06 59.6034C177.277 59.6034 175.876 59.1366 174.943 58.2028C174.009 57.269 173.542 55.8683 173.542 54.0857V42.1588H167.26V55.0194ZM194.565 53.449C194.565 55.8259 195.032 57.9057 196.05 59.6883C197.069 61.471 198.512 62.8717 200.422 63.8479C202.29 64.8241 204.539 65.291 207.171 65.291C209.505 65.291 211.543 64.909 213.283 64.145C215.023 63.381 216.593 62.235 217.952 60.7494L214.047 56.8446C212.901 58.033 211.797 58.8819 210.736 59.3912C209.675 59.943 208.487 60.1977 207.128 60.1977C205.261 60.1977 203.733 59.7732 202.629 58.9243C201.483 58.0754 200.847 56.887 200.762 55.4014H219.013V53.6188C219.013 51.3692 218.503 49.3319 217.527 47.4643C216.509 45.6392 215.108 44.1961 213.24 43.135C211.373 42.0739 209.251 41.5221 206.789 41.5221C204.412 41.5221 202.332 42.0314 200.465 43.0501C198.597 44.0688 197.154 45.5119 196.135 47.2946C195.074 49.1197 194.565 51.157 194.565 53.449ZM212.901 50.9872H200.847C201.016 49.6714 201.611 48.6103 202.714 47.8039C203.818 47.0399 205.218 46.6154 206.916 46.6154C208.571 46.6154 209.93 47.0399 211.033 47.8039C212.137 48.6103 212.731 49.6714 212.901 50.9872ZM222.951 53.2368C222.951 57.2266 224.097 60.1977 226.432 62.235C228.766 64.2723 232.077 65.291 236.406 65.291C240.693 65.291 244.004 64.2723 246.338 62.235C248.672 60.1977 249.861 57.2266 249.861 53.2368V34.9432H243.367V52.9821C243.367 55.2741 242.773 56.9294 241.627 57.9906C240.438 59.0941 238.698 59.6034 236.406 59.6034C234.072 59.6034 232.331 59.0941 231.185 57.9906C229.997 56.9294 229.445 55.2317 229.445 52.9397V34.9432H222.951V53.2368ZM253.372 54.8497C253.924 58.2028 255.452 60.7919 257.956 62.5746C260.46 64.3997 263.728 65.291 267.718 65.291C270.222 65.291 272.429 64.9514 274.297 64.2299C276.164 63.5083 277.65 62.4897 278.669 61.1314C279.687 59.7732 280.197 58.2028 280.197 56.4201C280.197 53.9159 279.263 51.8786 277.395 50.3506C275.528 48.8226 272.599 47.5917 268.609 46.7003C266.402 46.2334 264.704 45.809 263.558 45.427C262.412 45.0874 261.648 44.7054 261.224 44.3234C260.8 43.9414 260.587 43.4746 260.587 42.9652C260.587 42.0739 261.054 41.3523 262.03 40.7581C263.007 40.1639 264.28 39.8668 265.808 39.8668C267.633 39.8668 269.161 40.2912 270.35 41.0977C271.538 41.9466 272.387 43.135 272.896 44.7479L279.178 43.2623C278.499 40.5459 276.928 38.3812 274.552 36.7683C272.132 35.1554 269.246 34.349 265.85 34.349C263.516 34.349 261.479 34.731 259.696 35.495C257.913 36.259 256.513 37.3201 255.536 38.6359C254.56 39.9517 254.093 41.3948 254.093 43.0077C254.093 45.2572 254.942 47.0823 256.725 48.483C258.508 49.8837 261.436 51.0297 265.511 51.921C267.676 52.4303 269.373 52.8972 270.562 53.3217C271.75 53.7461 272.557 54.213 273.024 54.7223C273.448 55.2317 273.703 55.7834 273.703 56.4626C273.703 57.5661 273.151 58.3726 272.132 58.9668C271.114 59.561 269.628 59.8157 267.76 59.8157C265.426 59.8157 263.601 59.3488 262.328 58.3301C261.054 57.3114 260.163 55.741 259.738 53.5763L253.372 54.8497ZM283.928 34.9432V64.6543H296.025C300.694 64.6543 304.344 63.4234 307.061 60.9192C309.777 58.4574 311.135 54.7223 311.135 49.7988C311.135 46.573 310.499 43.8566 309.268 41.6494C307.994 39.4423 306.254 37.7446 304.005 36.641C301.755 35.5374 299.124 34.9432 296.11 34.9432H283.928ZM295.898 58.9668H290.422V40.6308H295.898C298.784 40.6308 300.949 41.3948 302.434 42.8803C303.877 44.4083 304.641 46.7003 304.641 49.7988C304.641 53.0246 303.877 55.359 302.434 56.8021C300.949 58.2452 298.784 58.9668 295.898 58.9668Z" fill="#000008"/>
<path d="M79 80C95.5685 80 109 66.5685 109 50C109 33.4315 95.5685 20 79 20C62.4315 20 49 33.4315 49 50C49 66.5685 62.4315 80 79 80Z" fill="#1B5AFE"/>
<path d="M63.7637 45.7256V35.504L73.9853 35.5064C73.9853 41.1488 69.4085 45.7256 63.7637 45.7256Z" fill="white"/>
<path d="M73.9844 45.6272V66.2048L84.1004 66.2168V45.6392H94.2308V35.516H84.1004C84.014 35.516 83.9276 35.516 83.8412 35.5184C83.7548 35.5208 83.6684 35.5232 83.582 35.528C83.4956 35.5328 83.4116 35.5376 83.3252 35.5448L83.3067 35.5464C83.2286 35.5531 83.1486 35.5599 83.0708 35.5688C82.9844 35.576 82.9004 35.5856 82.8164 35.5976L82.5644 35.6336C82.4804 35.6456 82.3964 35.66 82.3148 35.6744C82.2332 35.6888 82.1492 35.7056 82.0676 35.7224C81.986 35.7392 81.9044 35.756 81.8228 35.7752C81.7412 35.7944 81.662 35.8136 81.5804 35.8352C81.5012 35.8544 81.4196 35.876 81.3404 35.9L81.1028 35.972C81.0236 35.996 80.9444 36.0224 80.8676 36.0488C80.852 36.0542 80.8363 36.0595 80.8205 36.0649C80.7587 36.086 80.696 36.1074 80.6348 36.1304C80.558 36.1592 80.4812 36.188 80.4044 36.2192C80.366 36.2348 80.3282 36.2504 80.2904 36.266C80.2526 36.2816 80.2148 36.2972 80.1764 36.3128C80.0996 36.344 80.0252 36.3776 79.9508 36.4112C79.8764 36.4448 79.802 36.4784 79.7276 36.5144C79.6532 36.5504 79.5788 36.5864 79.5068 36.6248L79.2908 36.74C79.2188 36.7784 79.1468 36.8192 79.0772 36.86C79.0052 36.9008 78.9356 36.9416 78.866 36.9848C78.7964 37.028 78.7268 37.0712 78.6596 37.1144C78.59 37.1576 78.5228 37.2032 78.4557 37.2487C78.3885 37.2943 78.3236 37.34 78.2564 37.388C78.1892 37.436 78.1245 37.4839 78.0597 37.5319C78.0082 37.5687 77.9594 37.607 77.9103 37.6455C77.8953 37.6572 77.8803 37.669 77.8652 37.6808C77.8004 37.7312 77.738 37.7816 77.6756 37.8344C77.6329 37.8689 77.5913 37.9045 77.5493 37.9405C77.5299 37.9571 77.5105 37.9737 77.4908 37.9904C77.4284 38.0432 77.3684 38.096 77.3084 38.1512C77.2484 38.2064 77.1884 38.2616 77.1308 38.3168C77.0732 38.372 77.0156 38.4296 76.958 38.4872C76.9004 38.5424 76.8428 38.6024 76.7876 38.66C76.7324 38.7176 76.6772 38.7776 76.622 38.8376L76.4612 39.02C76.4204 39.0643 76.3822 39.11 76.3437 39.156C76.3301 39.1723 76.3165 39.1885 76.3028 39.2048C76.25 39.2672 76.1996 39.3296 76.1492 39.3944C76.0988 39.4568 76.0484 39.5216 76.0004 39.5864C75.9524 39.6512 75.9044 39.716 75.8564 39.7832C75.8084 39.848 75.7628 39.9152 75.7172 39.9824C75.6716 40.0496 75.626 40.1192 75.5828 40.1864C75.5396 40.2536 75.4964 40.3231 75.4532 40.3927C75.4216 40.4436 75.3913 40.4959 75.3613 40.5474C75.3503 40.5664 75.3393 40.5853 75.3284 40.604C75.2876 40.6736 75.2468 40.7456 75.2084 40.8176L75.0932 41.0336C75.0548 41.108 75.0188 41.18 74.9828 41.2544C74.966 41.2916 74.9486 41.3288 74.9312 41.366C74.9138 41.4032 74.8964 41.4404 74.8796 41.4776C74.846 41.5519 74.8124 41.6264 74.7812 41.7032C74.7656 41.7416 74.75 41.7794 74.7344 41.8172C74.7188 41.855 74.7032 41.8928 74.6876 41.9312C74.6564 42.008 74.6276 42.0848 74.5988 42.1616C74.57 42.2384 74.5436 42.3152 74.5172 42.3944C74.4908 42.4712 74.4644 42.5504 74.4404 42.6296C74.414 42.7088 74.39 42.788 74.3684 42.8672C74.3576 42.9068 74.3468 42.947 74.336 42.9872C74.3252 43.0274 74.3144 43.0676 74.3036 43.1072C74.282 43.1864 74.2628 43.2679 74.2436 43.3495C74.2244 43.4311 74.2076 43.5128 74.1908 43.5944C74.174 43.676 74.1572 43.7576 74.1428 43.8416C74.1284 43.9232 74.114 44.0072 74.102 44.0912C74.0876 44.1752 74.0756 44.2592 74.066 44.3432L74.0372 44.5976C74.0276 44.6816 74.0204 44.7656 74.0132 44.852C74.006 44.936 74.0012 45.0223 73.9964 45.1087C73.9916 45.1951 73.9892 45.2816 73.9868 45.368C73.9844 45.4544 73.9844 45.5408 73.9844 45.6272Z" fill="white"/>
</svg>
