<svg width="300" height="100" viewBox="0 0 26 26" fill="none" xmlns="http://www.w3.org/2000/svg">
<path opacity="0.2" d="M13 26C20.1797 26 26 20.1797 26 13C26 5.8203 20.1797 0 13 0C5.8203 0 0 5.8203 0 13C0 20.1797 5.8203 26 13 26Z" fill="#7390FE"/>
<path fill-rule="evenodd" clip-rule="evenodd" d="M12.351 5.20116C12.5037 5.11304 12.6809 5.08011 12.8499 5.03383C12.2362 6.09477 11.5889 7.13613 10.9625 8.18995C10.8667 8.40268 10.5855 8.40713 10.4499 8.58514C10.2113 8.79875 10.1679 9.13074 10.2059 9.4298C9.50622 10.5824 8.81107 11.7368 8.10599 12.8859C7.07819 12.2967 6.04768 11.7137 5.0217 11.1218C5.02621 10.1596 5.0217 9.19749 5.0235 8.23535C5.35977 8.42582 5.69514 8.6154 6.0296 8.80765C8.13853 7.60964 10.2438 6.40362 12.351 5.20116Z" fill="#24D2DA"/>
<path fill-rule="evenodd" clip-rule="evenodd" d="M8.21627 12.9437C8.89062 11.816 9.57582 10.6955 10.2556 9.57132C10.4852 10.0039 10.9878 10.1418 11.372 10.4C11.3629 10.8993 11.3584 11.3986 11.3765 11.897V11.9139C10.3975 12.2913 9.43209 12.7016 8.45763 13.0906C8.39706 13.0541 8.27684 12.9802 8.21627 12.9437Z" fill="#24D2DA"/>
<path fill-rule="evenodd" clip-rule="evenodd" d="M8.59412 13.1654C9.58034 12.763 10.5684 12.3625 11.5564 11.9629C11.5663 12.9206 11.5699 13.8792 11.5546 14.8369C10.5521 14.3082 9.58215 13.7199 8.59412 13.1654Z" fill="#24D2DA"/>
<path fill-rule="evenodd" clip-rule="evenodd" d="M5.43119 13.4217C6.09017 13.8008 6.75186 14.1756 7.41175 14.5529C7.59435 14.6633 7.81492 14.7398 7.92701 14.9321C9.55774 17.2729 11.2129 19.5977 12.8346 21.9448C12.5254 21.9146 12.2687 21.7401 12.0111 21.587C10.0341 20.4558 8.05537 19.3272 6.07842 18.1968C5.68249 17.9868 5.42124 17.5453 5.42847 17.1029C5.43119 15.8756 5.42757 14.6491 5.43119 13.4217Z" fill="#24D2DA"/>
<path fill-rule="evenodd" clip-rule="evenodd" d="M8.09333 14.9499C9.26576 15.5899 10.4111 16.2796 11.5817 16.9232L11.5736 16.941C11.5076 17.0745 11.438 17.2106 11.4524 17.3628C11.4615 18.1603 11.4452 18.9569 11.4615 19.7535C10.3306 18.1585 9.20791 16.5564 8.09333 14.9499Z" fill="#24D2DA"/>
<path fill-rule="evenodd" clip-rule="evenodd" d="M13.1266 5.03383C13.4863 5.09257 13.7846 5.30529 14.0947 5.47885C16.0391 6.58875 17.9835 7.69954 19.9279 8.80943C20.3229 9.02037 20.576 9.45828 20.5715 9.89974C20.567 11.1253 20.5779 12.3509 20.5652 13.5757C19.4777 12.9758 18.4084 12.3447 17.3254 11.7368C17.2179 11.6709 17.0913 11.6175 17.0307 11.5001C15.7336 9.34257 14.4165 7.19577 13.1266 5.03383Z" fill="#7390FE"/>
<path fill-rule="evenodd" clip-rule="evenodd" d="M11.024 8.3012C11.6287 7.29989 12.2362 6.30037 12.84 5.29906C12.8427 6.58963 12.8427 7.8811 12.8409 9.17256C12.3862 8.92068 11.9433 8.6501 11.4859 8.40356C11.3467 8.32256 11.1803 8.32078 11.024 8.3012Z" fill="#7390FE"/>
<path fill-rule="evenodd" clip-rule="evenodd" d="M13.1383 5.31508C14.3903 7.35775 15.6305 9.40843 16.8581 11.4653C15.6124 10.772 14.384 10.0502 13.141 9.35325C13.1247 8.00749 13.1302 6.66084 13.1383 5.31508Z" fill="#7390FE"/>
<path fill-rule="evenodd" clip-rule="evenodd" d="M11.372 10.3999C11.8719 10.6999 12.4043 10.9509 12.8798 11.2882C12.3808 11.4965 11.8818 11.7048 11.3765 11.897C11.3584 11.3986 11.3629 10.8993 11.372 10.3999Z" fill="#7390FE"/>
<path fill-rule="evenodd" clip-rule="evenodd" d="M13.1338 11.4039C14.5494 12.2103 15.9641 13.0203 17.3797 13.8275C16.1458 14.577 14.8947 15.2997 13.6599 16.05C13.4791 15.9592 13.3037 15.8586 13.1329 15.7518C13.1329 14.3019 13.1311 12.8529 13.1338 11.4039Z" fill="#7390FE"/>
<path fill-rule="evenodd" clip-rule="evenodd" d="M11.5564 11.9629C11.9849 11.7875 12.4151 11.6167 12.8427 11.4378C12.8445 12.8218 12.8427 14.2058 12.8436 15.5899C12.4106 15.3549 11.9948 15.0896 11.5537 14.8689L11.5546 14.8369C11.5699 13.8792 11.5663 12.9206 11.5564 11.9629Z" fill="#7390FE"/>
<path fill-rule="evenodd" clip-rule="evenodd" d="M17.5053 13.8987C18.6551 14.5618 19.8131 15.2098 20.9602 15.8764C20.9521 16.8386 20.9548 17.8016 20.9584 18.7638C20.6258 18.5733 20.2931 18.3819 19.9586 18.1932C17.875 19.3788 15.7932 20.5679 13.7114 21.7561C13.5451 21.8576 13.358 21.9154 13.1654 21.9439C14.8079 19.5702 16.4929 17.2258 18.1399 14.8555C17.0398 15.475 15.9442 16.1025 14.8495 16.7327C14.4879 16.5342 14.1327 16.3232 13.7729 16.1221C15.0131 15.3753 16.2606 14.6384 17.5053 13.8987Z" fill="#7390FE"/>
<path fill-rule="evenodd" clip-rule="evenodd" d="M14.9652 16.803C15.8764 16.2734 16.7912 15.7474 17.7132 15.2365C17.0985 16.1541 16.4558 17.0567 15.805 17.9503C15.8212 17.6637 15.7688 17.353 15.541 17.1528C15.3611 17.0184 15.1586 16.9178 14.9652 16.803Z" fill="#7390FE"/>
<path fill-rule="evenodd" clip-rule="evenodd" d="M11.4524 17.3628C11.438 17.2106 11.5076 17.0745 11.5736 16.9409C12.0075 17.1608 12.4224 17.4145 12.8436 17.6566C12.8391 19.0112 12.8427 20.3659 12.8418 21.7205C12.3736 21.0717 11.9143 20.4139 11.4615 19.7535C11.4452 18.9569 11.4615 18.1603 11.4524 17.3628Z" fill="#7390FE"/>
<path fill-rule="evenodd" clip-rule="evenodd" d="M13.1347 17.8212C13.6011 18.0713 14.0504 18.3508 14.5159 18.6018C14.7835 18.7504 15.099 18.6846 15.372 18.5884C14.6217 19.6396 13.8895 20.7032 13.1365 21.7526C13.1284 20.4424 13.132 19.1314 13.1347 17.8212Z" fill="#7390FE"/>
</svg>
