<svg width="300" height="100" viewBox="0 0 300 100" fill="none" xmlns="http://www.w3.org/2000/svg">
<path fill-rule="evenodd" clip-rule="evenodd" d="M233.977 66.4865V63.4196C233.977 63.3482 233.905 63.3485 233.834 63.3485C233.477 63.7052 233.192 64.0608 232.836 64.3462C231.123 65.9871 229.054 66.9868 226.771 67.3435C220.565 68.271 215 64.2044 213.359 58.4255C212.86 56.6419 212.574 54.7861 212.645 52.9312C213.074 46.2248 217.996 41.3032 223.132 40.5184C227.199 39.9477 230.766 40.8038 233.477 44.0856C233.62 44.2283 233.691 44.2986 233.834 44.3699C233.834 44.4412 233.834 44.3699 233.977 44.3699C233.977 44.0845 233.977 43.7286 233.977 43.4433C234.048 42.0877 234.905 41.2316 236.189 41.3029C237.259 41.3029 238.258 41.3029 239.257 41.3029C239.328 41.3029 239.399 41.3029 239.542 41.3029C239.542 41.517 239.613 41.7313 239.613 41.9453C239.613 50.0072 239.613 58.0679 239.613 66.1298C239.613 66.2725 239.613 66.3438 239.542 66.4865C239.399 66.5579 239.257 66.6301 239.114 66.6301C237.544 66.7014 235.975 66.7014 234.405 66.6301C234.263 66.6301 234.12 66.5579 233.977 66.4865ZM233.62 53.8592C234.12 49.9353 230.624 46.297 226.486 46.297C222.705 46.3684 218.923 48.937 218.852 54.0738C218.781 58.2117 222.134 61.35 226.415 61.4214C231.052 61.4927 234.12 57.4264 233.62 53.8592ZM192.027 66.4865C191.67 66.5579 191.242 66.7011 190.886 66.7011C189.815 66.7011 188.817 66.7011 187.675 66.7011C187.675 66.2731 187.603 65.9874 187.603 65.702C187.603 55.0004 187.603 44.2986 187.603 33.6683C187.603 33.3829 187.746 33.027 187.817 32.7417C187.817 40.3755 187.818 47.9382 187.746 55.5007V66.4155V65.3453C187.746 62.0635 187.746 58.7825 187.746 55.5007C187.818 47.9382 187.817 40.3755 187.817 32.7417C188.959 32.7417 190.172 32.7417 191.384 32.7417C192.74 32.7417 193.382 33.2408 193.81 34.5963C193.81 34.8817 193.881 35.239 193.881 35.5244C193.953 37.9501 193.881 40.3752 193.881 42.8009C195.237 41.588 196.735 40.7325 198.519 40.5184C204.44 39.591 209.649 43.443 210.077 49.2218C210.219 51.0054 210.291 52.789 210.291 54.5726C210.291 58.5679 210.291 62.4913 210.22 66.4865C210.077 66.5579 209.863 66.6301 209.649 66.6301C207.794 66.7014 206.01 66.6301 204.155 66.6301C204.084 66.416 204.012 66.2017 204.012 65.9877C204.012 61.279 204.012 56.57 204.012 51.7899C203.87 51.0765 203.799 50.292 203.585 49.5786C202.943 47.5096 201.516 46.4394 199.304 46.3681C196.95 46.2967 195.095 47.3663 194.453 49.364C194.096 50.2914 194.096 51.3624 193.881 52.3613C193.881 54.9296 193.881 57.5696 193.881 60.138C193.881 61.3509 193.953 62.5637 193.881 63.7052C193.881 64.0619 193.81 64.3465 193.81 64.6319C193.596 65.6307 193.026 66.2725 192.027 66.4865ZM272.218 52.3613C272.075 51.5051 272.004 50.5768 271.718 49.7207C271.147 47.6517 269.364 46.3681 267.295 46.3681C264.94 46.3681 263.014 47.5804 262.443 49.7207C262.158 50.8622 261.944 52.075 261.944 53.2879C261.873 56.4984 261.944 59.7813 261.944 62.9918C261.944 65.2748 260.589 66.6298 258.306 66.7011C257.521 66.7011 256.736 66.7011 255.88 66.7011V41.1594C257.164 41.1594 258.519 40.9462 259.875 41.3029C260.802 41.5883 261.301 42.3731 261.658 43.4433C261.801 43.1579 262.016 42.8728 262.23 42.6588C263.87 41.1605 265.725 40.4463 267.937 40.3749C270.22 40.3036 272.217 40.8746 274.072 42.0874C276.855 43.9424 277.997 46.7248 278.282 49.9353C278.282 50.292 278.282 50.6487 278.353 51.0054C278.353 51.2908 278.424 51.6478 278.424 52.0045C278.495 56.5706 278.495 61.136 278.424 65.702C278.424 65.9874 278.353 66.2733 278.282 66.6301H272.36C272.288 66.416 272.146 66.1306 272.146 65.9166C272.146 61.4219 272.146 56.9981 272.146 52.5034C272.146 52.432 272.146 52.3613 272.218 52.3613ZM102.918 41.3029C102.918 41.2316 102.99 41.1594 102.99 41.1594C104.488 41.1594 105.986 41.2319 107.484 41.2319C109.125 41.5886 110.124 42.5874 110.695 44.0856C111.908 47.5101 113.12 50.8625 114.333 54.287C114.69 55.2858 115.047 56.3557 115.475 57.5685C115.689 57.1405 115.76 56.9273 115.832 56.6419C117.33 52.5039 118.828 48.366 120.255 44.1567C120.826 42.5871 121.825 41.5886 123.466 41.2319C124.607 41.2319 125.748 41.1597 126.89 41.0884C127.318 41.0884 127.675 41.2316 128.103 41.3029C127.175 43.5146 126.319 45.7976 125.391 48.0806C123.037 54.0022 120.612 59.924 118.186 65.8455C118.115 66.1309 117.972 66.3447 117.9 66.6301H113.121C112.835 65.9166 112.478 65.131 112.193 64.3462C109.196 56.9264 106.129 49.4362 103.133 42.0164C103.061 41.731 102.989 41.517 102.918 41.3029ZM244.394 66.6301C244.322 66.3447 244.179 66.0585 244.179 65.7731C244.179 58.5673 244.179 51.3622 244.179 44.2278C244.179 43.871 244.25 43.5851 244.322 43.2997C244.536 42.2296 245.178 41.5173 246.248 41.2319C246.605 41.2319 247.033 41.0884 247.389 41.0884C248.388 41.0884 249.388 41.0884 250.458 41.0884C250.458 41.5164 250.529 41.8021 250.529 42.0874C250.529 50.0066 250.529 57.8539 250.529 65.7731C250.529 66.0585 250.386 66.3447 250.315 66.6301H244.394ZM154.357 51.0054C150.077 52.9317 145.796 54.9299 141.444 56.9275C140.659 55.2153 139.946 53.5744 139.161 51.9335C140.517 51.3627 141.729 50.7917 142.942 50.2209C144.155 49.6502 145.439 49.0794 146.723 48.4373C145.725 47.3672 144.583 46.6532 143.227 46.4391C141.8 46.2965 140.374 46.2254 139.018 46.7248C135.951 47.8663 133.953 50.649 134.095 53.7881C134.309 58.4968 138.234 61.8497 142.229 61.3503C145.083 61.0649 147.151 59.5667 148.507 57.0697C148.792 56.5703 149.078 56.2846 149.577 56.0706C151.075 55.3571 152.574 54.6437 154.143 53.9303C154.357 53.8589 154.572 53.7873 154.857 53.6446C155.142 54.5721 155 55.4293 154.857 56.2141C153.929 62.421 148.15 67.2721 141.943 67.3435C135.95 67.4862 129.601 63.4904 128.317 55.7139C127.247 49.0789 131.67 41.5886 139.303 40.5184C147.223 39.3769 153.216 44.9412 154.357 51.0054ZM184.25 49.5786H177.544C176.545 48.7224 175.831 47.9379 174.975 47.3672C173.62 46.3684 171.979 46.2965 170.338 46.4391C169.625 46.5818 168.983 46.7251 168.34 47.0105C165.986 48.0806 164.773 49.9356 164.274 52.3613C163.418 56.7846 166.486 61.7784 172.407 61.3503C174.262 61.2076 175.76 60.2802 176.902 58.8533C177.044 58.7106 177.116 58.4971 177.258 58.3544H184.25C184.107 58.7111 184.036 59.0679 183.893 59.4246C181.824 63.9906 178.257 66.5587 173.335 67.3435C166.414 68.4137 159.351 63.419 158.21 56.4273C157.282 51.0052 158.923 46.5111 163.204 43.0865C165.558 41.2316 168.198 40.4463 171.194 40.3749C174.476 40.3036 177.33 41.2313 179.827 43.1576C181.896 44.7985 183.465 46.8675 184.25 49.5786Z" fill="#28008C"/>
<path d="M247.472 38.2346C248.397 38.2346 249.391 38.2346 250.315 38.1635C250.386 37.9495 250.529 37.7355 250.529 37.4501V33.4551C250.529 33.2411 250.386 32.9557 250.386 32.7417H250.315L250.314 32.7408C250.243 32.6698 250.172 32.5981 250.029 32.5981H244.679C244.536 32.5981 244.465 32.6703 244.394 32.7417C244.322 33.5265 244.251 34.3829 244.322 35.1676C244.465 36.8086 245.82 38.1633 247.461 38.2346H247.472Z" fill="#82BE00"/>
<path fill-rule="evenodd" clip-rule="evenodd" d="M86.5814 19.8286C86.8668 19.8286 87.152 19.8286 87.5087 19.8286C87.4374 20.114 87.3662 20.328 87.2948 20.5421C83.2996 28.818 79.3044 37.093 75.3092 45.3689C73.811 48.5081 72.3122 51.5756 70.814 54.7147C69.9578 56.5696 69.1023 58.4254 68.1748 60.209C65.107 66.7013 61.9679 73.1217 58.9001 79.614C58.686 79.6854 58.4007 79.7575 58.1866 79.7575C56.8311 79.8289 55.4754 79.8286 54.1199 79.8286C53.1924 79.8286 52.2649 79.8289 51.2661 79.7575C51.0521 79.7575 50.7667 79.6854 50.5527 79.614C50.41 79.3286 50.3387 79.0436 50.196 78.8295C48.9118 76.1185 47.6273 73.4782 46.3431 70.7671C45.273 68.6268 44.2746 66.4867 43.2044 64.2751C41.7062 61.2073 40.2074 58.0681 38.7092 55.0004C38.6378 54.8577 38.6384 54.7153 38.5671 54.5726C37.3542 52.0755 36.1409 49.5785 34.9281 47.0815C34.3573 45.9399 33.8581 44.7979 33.2873 43.6564C32.3599 41.7301 31.361 39.7333 30.4336 37.7357C27.7225 32.0995 25.0111 26.4625 22.3001 20.8263C22.2287 20.6123 22.1575 20.3994 22.0862 20.1853C22.0148 20.114 22.0147 20.0424 21.9434 19.8997C22.1574 19.8283 22.3717 19.8286 22.5857 19.8286H29.1495C32.2886 19.8286 35.3562 19.8286 38.4953 19.8286C39.8508 19.8286 41.2778 20.0424 42.562 20.6131C44.2743 21.0412 45.7013 22.0397 46.9855 23.1812C47.6276 23.752 48.1266 24.3938 48.6973 25.0359C49.1254 25.678 49.6249 26.3209 49.9103 26.963C51.4799 30.1021 52.9781 33.3118 54.5477 36.4509C54.5477 36.5936 54.6194 36.736 54.6194 36.8787C55.4042 38.3056 56.1174 39.7325 56.8308 41.1593C58.115 43.7991 59.3995 46.511 60.6837 49.1507C60.755 49.3647 60.8262 49.5077 60.8976 49.7931C59.542 52.5042 58.2574 55.2863 56.9019 58.0687C56.8305 58.0687 56.7593 58.0687 56.688 58.0687C55.8319 56.3564 55.0471 54.5723 54.191 52.86C52.2647 48.9361 50.4097 45.0833 48.4834 41.1593C48.4121 41.0167 48.3409 40.8035 48.2696 40.5894C46.914 37.807 45.6297 35.0962 44.2028 32.3138C43.7034 31.1723 43.2756 30.0305 42.3481 29.1744C41.5634 28.675 40.7068 28.461 39.7793 28.461C39.708 28.461 39.6372 28.461 39.6372 28.461C38.9951 28.461 38.4239 28.461 37.7819 28.461C37.2824 28.461 36.8544 28.461 36.355 28.461C35.9269 28.461 35.5705 28.461 35.2137 28.461C34.9284 28.461 34.6431 28.6028 34.2864 28.6742C35.856 31.8846 37.4253 35.1676 38.9948 38.378C40.065 40.6611 41.2062 42.9438 42.2764 45.2268C42.7758 46.2969 43.2756 47.3674 43.775 48.3662C44.7738 50.3638 45.701 52.4328 46.6998 54.4304C48.0554 57.2129 49.4111 60.0655 50.7666 62.9193C51.1233 63.704 51.5515 64.4891 51.9796 65.3452C52.7644 66.9861 53.549 68.6273 54.3338 70.2682C54.4051 70.4109 54.5475 70.625 54.7616 70.9817C55.7604 68.8414 56.7593 66.8443 57.7582 64.7753C58.8997 62.421 59.97 60.0666 61.1115 57.6409C63.9652 51.7194 66.89 45.7254 69.7438 39.7325C69.9578 39.3757 70.1011 39.0201 70.3151 38.7348C71.2426 36.7371 72.1696 34.7389 73.0971 32.8127C74.738 29.3168 76.4503 25.8926 78.0912 22.3967C78.876 20.6131 80.2319 19.8286 82.0869 19.8286H82.1579C82.586 19.8286 83.0857 19.8286 83.5137 19.8286C84.3699 19.8286 85.2257 19.8286 86.0818 19.8286C86.2245 19.8286 86.4387 19.8286 86.5814 19.8286Z" fill="url(#paint0_linear_1160_23280)"/>
<defs>
<linearGradient id="paint0_linear_1160_23280" x1="21.9434" y1="19.8286" x2="95.2318" y2="19.8286" gradientUnits="userSpaceOnUse">
<stop stop-color="#28008C"/>
<stop offset="0.57484" stop-color="#00BED7"/>
<stop offset="1" stop-color="#82BE00"/>
</linearGradient>
</defs>
</svg>
